<?xml version="1.0" encoding="UTF-8"?>
<svg id="Layer_1" xmlns="http://www.w3.org/2000/svg" version="1.1" viewBox="0 0 620.5 340.6">
  <!-- Generator: Adobe Illustrator 29.2.1, SVG Export Plug-In . SVG Version: 2.1.0 Build 116)  -->
  <path id="US-AK" d="M94.7,232v52l.6.2.6.2.2-.4.6.3.5.3.3-.3.4-.4h.5s.5,0,.5,0h.4s0,.3,0,.3v.5c-.1,0-.2.4-.2.4l.3.4h0s.4.3.4.3l.4.2.2.6.4.4.3.3.3.3.4.5.3.3.4.4.2.2v.5c.1,0,.3.6.3.6v.3c0,0,.1,0,.1,0l.4-.4.4-.2.4-.3.3-.2h.5s.3-.6.3-.6v-.8h.3s.2,0,.2,0v-.2c0,0-.1-.3-.1-.3l.5-.2h.4c0-.1.5-.4.5-.4l.5-.3.3.2.2.2.5.5h0c0,.1,0,.4,0,.4v.2s.2.7.2.7h0c0,0,.2.2.2.2l.3.2v.2c.1,0,.6.3.6.3h0c0,.1,0,.3,0,.3v.2c0,0,.1.1.1.1v.2c0,0,.3.2.3.2l.3.2.2.2.3.2.3.5.3.4.3.4v.3s.3.5.3.5l.4.6.3.6.2.3.2.5.3.6.3.6.3.4.3.6.2.3v.2c-.1,0-.2.3-.2.3h.4c0,.1.3.2.3.2v.3c0,0-.2.4-.2.4l.3.2h.2c0,.1,0,.3,0,.3v.2c.1,0,.1.4.1.4h.4s.2,0,.2,0l.2.2.3.2.3.2.3.2h.4c0,.1.4.3.4.3l.2.3h.4c0,.1.1.6.1.6l.5.2h.3c0-.1,0,0,0,0v.2c0,0,0,.3,0,.3v.3s-.1.2-.1.2v.2c0,0-.1.2-.1.2v.3s0,.3,0,.3v.2s.2.5.2.5v.3s0,.2,0,.2l-.3.7v.3c-.1,0,0,.1,0,.1l-.2.3-.4.5-.2.3h0c0,0-.5-.2-.5-.2l-.2-.6v-.4c-.1,0-.3-.4-.3-.4h0c0,0,.1-.4.1-.4l.5-.2h0c0,0-.2-.1-.2-.1h0c0,0,0-.5,0-.5v-.4s0-.2,0-.2v-.5c0,0-.2-.3-.2-.3l-.4-.6v-.2s.1-.2.1-.2v-.2c0,0-.5.3-.5.3l-.8.3-.3.2h0c0,0,0,.2,0,.2v.2c0,0,0,0,0,0h0c0,.1,0,.5,0,.5l-.2.4h0c0,0-.3,0-.3,0h0c0-.1-.2-.6-.2-.6h0c0-.1.1-.2.1-.2l.2-.2.2-.4.4-1h.2s.4-.2.4-.2h-.7c0,0-.1-.1-.1-.1h0c0-.1,0-.3,0-.3v-.2c-.1,0-.4,0-.4,0h-.1c0,0-.2-.4-.2-.4h-.1c0-.1,0-.3,0-.3v-.2s0,0,0,0h-.2s0-.1,0-.1v-.5s-.4-.1-.4-.1h-.1c0-.1-.2-.4-.2-.4v-.2c0,0,0-.1,0-.1v-.3c0,0,0,0,0,0h-.2s-1.3-.5-1.3-.5v-.7c0,0-.2-.9-.2-.9l-.3-.4h0c0-.1,0-.2,0-.2h.1l.5.3.5.3h0s-.7-.7-.7-.7l-.2-.2v-.3s0-.1,0-.1h0c0,0,.7,0,.7,0h0c0,0-.7-.3-.7-.3h-.1l-.2.3h0c0,0-.2,0-.2,0h0s-.2-.4-.2-.4l-.2-.2-.3-.3v-.2c0,0,0-.4,0-.4v-.3s.3-.8.3-.8h.1c0-.1,0-.2,0-.2h0s0,0,0,0l-.2.4-.2.6-.2.2h-.1s-.2-.3-.2-.3l-.4-.3h-.4c0,0-.3-.4-.3-.4l-.4-.9v-.4c0,0-.1-.1-.1-.1h-.2c0-.1-.1-.3-.1-.3l-.2-1.1-.3-.7v-.4c0,0,0-.4,0-.4h0s0,.3,0,.3v.2s-.2,0-.2,0l.2.3v.2s0,0,0,0h-.2s.3.6.3.6v.8c.1,0,.3.6.3.6v.5c.1,0,.2.4.2.4v.3c0,0,.3.8.3.8v.2s0,.1,0,.1h0c0,.1-.1.2-.1.2h-.4c0,0-.1-.3-.1-.3l-.2-.3-.3-.2h-.7c0,0,0,0,0,0v-.8c0,0,0-.2,0-.2l-.4-.7h0c0-.1.5-.5.5-.5h-.2s-.2.1-.2.1h0c0,0-.1-.6-.1-.6v-.2c0,0-.1,0-.1,0v.5s0,.2,0,.2h0c0,.1,0,.3,0,.3h0c0,.1,0,.2,0,.2h0s-.2,0-.2,0l-.2-.2h-.2c0,0,0-.2,0-.2v-.2c0,0-.2-.2-.2-.2l-.6-.2-.4-.2h0c0,0,.1.3.1.3h0c0,.1,0,.2,0,.2l-.2.2h0s.2,0,.2,0h.2s.3.2.3.2l.3.2h.1c0,.1,0,.3,0,.3h0c0,0,.3.2.3.2h0c0,0-.2.4-.2.4h.4s.2,0,.2,0l.3.4v.2c0,0,.1.3.1.3h0c0,0-.1.2-.1.2h-.8c0,0-.3.5-.3.5h0s-.2,0-.2,0l-.4-.3-.5-.3-1.1-.8h0s0-.2,0-.2h0c0,0-.1-.2-.1-.2l-.2-.2-.3-.4-.2-.3v-.2c0,0-.2-.2-.2-.2l-.5-.5-.3-.2h-.2c0-.1-.2-.1-.2-.1h0c0,0,0-.2,0-.2h0c0,0-.4-.2-.4-.2l-.4-.2-1.1-.6-.5-.4-.3-.2h-.1c0-.1,0-.2,0-.2h0c0,0,.2-.2.2-.2h.1c0-.1.2-.5.2-.5h0c0-.1-.1-.4-.1-.4v-.3c0,0,0-.1,0-.1h0c0-.1,0-.2,0-.2h0c0,0,0-.1,0-.1h0s.3.4.3.4h0c0,.1,0,.6,0,.6v.6c0,0,.1,0,.1,0v-.2s0-.4,0-.4v-.2s0-.2,0-.2h0c0,0,.3,0,.3,0h.1s-.6-.3-.6-.3l-.4-.5h0c0,0-.2,0-.2,0l-.2.2-.6.7h-.2c0,.1-.7.5-.7.5h-.5c0,0-.5,0-.5,0h-.5c0-.1-1.1-.7-1.1-.7h-.2c0-.1.3-.5.3-.5h0c0-.1,0-.5,0-.5h0c0-.1-.1-.2-.1-.2h0v.4s0,.1,0,.1h-.2c0,.1-.3.2-.3.2l-1-.3-1-.2h-.9c0,0-1.3.1-1.3.1l-.7.2h-.4s-.4,0-.4,0h0c0-.1.2-.2.2-.2h0c0,0-.2-.4-.2-.4l-.3-.2h-.5c0,0-.3-.2-.3-.2h0c0-.1-.2-.2-.2-.2h-.3c0-.1-.1-.3-.1-.3v-.6c0,0,.2-.4.2-.4v-.2c0,0,.3-.4.3-.4h0s-.3.3-.3.3l-.3.3-.3.4-.2.2-.2.2h-.3s-.4-.3-.4-.3h-.4c0-.1-.3-.1-.3-.1h-.1s.2-.3.2-.3v-.2c.1,0,.3-.3.3-.3h0c0-.1-1.1-.2-1.1-.2v-.2s0-.1,0-.1h0c0,0-.2-.2-.2-.2h-.2c0,0-.4.2-.4.2h-.2c0-.1,0-.2,0-.2h.1c0,0,.2-.3.2-.3h-.3c0-.1-.2-.3-.2-.3h0c0-.1,0-.6,0-.6v-.3c0,0,.8-.3.8-.3h-.2c0-.1-.5,0-.5,0l-.3.2-.4.3h-.2c0,.1-.1,0-.1,0h-.2s-.2,0-.2,0h-.1c0,0,0,.2,0,.2h0c0,.1,0,.2,0,.2h0s0-.2,0-.2h-.2c0,0-.1-.2-.1-.2h0c0,0,0,.3,0,.3h0c0,.1-.4.2-.4.2h-.2s-.2-.3-.2-.3h0c0,0,0-.3,0-.3l.5-1h0s-.2.2-.2.2l-.3.4h-.1c0,.1-.3.1-.3.1h-.1s-.1,0-.1,0h-.2c0,.1-.1.2-.1.2h0c0,.1,0,.1,0,.1h.3c0-.1.1-.2.1-.2h0c0,0-.2.5-.2.5v.4c-.1,0-.2.1-.2.1h-.2s-.2,0-.2,0h0c0,.1.4.4.4.4h.1s.2.2.2.2h0c0,.1,0,.4,0,.4h0c0,.1,0,.2,0,.2h-.3s0,0,0,0l-.2.2v.2c-.1,0,0,0,0,0h.2c0-.1.3-.2.3-.2h.3s.2,0,.2,0h.2c0-.1.2,0,.2,0l.2.2v.2s0,.2,0,.2h-.1c0,.1-.2.2-.2.2h-.1c0,0,0,.2,0,.2v.2s0,.3,0,.3v.5s0,0,0,0h0s-.1,0-.1,0h0c0,.1-.2.7-.2.7h0c0,0,0,0,0,0h0s0,0,0,0h-.2c0,0-.2.1-.2.1h-.2s-.4-.1-.4-.1h-.2c0,0-.1-.2-.1-.2l-.3.2h0c0,0-.2-.5-.2-.5h0s0,.5,0,.5v.2c0,0-.3.3-.3.3v.6c-.1,0-.1,0-.1,0h0c0,0-.1-.6-.1-.6h0c0-.1-.2.2-.2.2h0c0,.1,0,.5,0,.5h0c0,0-.4-.1-.4-.1h0s0,0,0,0v.3c.1,0,.1.1.1.1l-.5.6h-.1s0,0,0,0h0s-.3.2-.3.2h0s-.1-.1-.1-.1h0s0,.1,0,.1v.3s-.1.2-.1.2l-.4.4v.2c-.1,0-.2.2-.2.2h0s-.2-.1-.2-.1h-.3c0-.1,0,0,0,0h0c0,.1,0,.2,0,.2h-.1s-.2,0-.2,0h-.2c0,0-.3,0-.3,0l-.3.2h-.3s-.4-.3-.4-.3h-.1s0-.1,0-.1v-.3c0,0,.2-.2.2-.2h0c0,0,.4-.3.4-.3h.4c0,0,.3-.2.3-.2l.3-.3.2-.2.3-.6h0s0,0,0,0l-.7.6h-.1c0,0-.1,0-.1,0l-.6-.2h-.1c0,0,0-.4,0-.4l.2-.6v-.3c.1,0,.4-.5.4-.5l.4-.5v-.3c.1,0,.3-.9.3-.9v-.4s0-.5,0-.5v-.3h0c0,0,.9-.6.9-.6l.4-.4.8-.5h.2s.2.2.2.2h.2c0,.1.2.2.2.2h.3s.3-.1.3-.1h.5s1.1.4,1.1.4h.2s0,0,0,0l-.2-.2h-.7c0-.1-.3-.3-.3-.3l-.9-.6-.2-.2h0c0-.1.2-.2.2-.2h0c0,0,0-.2,0-.2v-.2c.1,0,.3-.3.3-.3l.3-.3.6-.4h-.2s-.4,0-.4,0h-.2c0,0-.3.4-.3.4v.2c-.1,0-.3.4-.3.4h0c0,0-.3.1-.3.1h-.8s-.1-.2-.1-.2h0s-.1,0-.1,0l-.8.5-.3.3-.2.3-.3.2h-.4c0,.1-.3.3-.3.3l-.3.3v.3c-.1,0-.1.1-.1.1v.4c0,0,0,0,0,0h-.2s-.3.3-.3.3l-.6.7v.3c0,0,0,0,0,0v.2c.1,0,0,.1,0,.1l-.2.2-.4.3h-.3c0,.1-.2.1-.2.1h-.2s-.3-.3-.3-.3h-.2s0,0,0,0l.3.2.3.3.2.2v.2c0,0,0,.2,0,.2v.2c0,0-.3.4-.3.4h-.2c0,.1-.6.2-.6.2h-.2c0,0,0,.1,0,.1h.4c0,.1,0,.2,0,.2v.3c0,0-.2,0-.2,0l-.3.2h-.3c0,0,0,0,0,0v-.2c0,0,0,0,0,0h-.1s-.2,0-.2,0l-.4.3h0c0,0,.1.1.1.1h0c0,0-.2.3-.2.3v.2c0,0-.2.2-.2.2l-.6.5h0c0,.1-.2.6-.2.6v.4c0,0,0,.2,0,.2l.5.2h.3s.3.2.3.2l.6.4.2.2h0c0,.1,0,.2,0,.2v.2c0,0-.2.3-.2.3l-.4.4h-.2c0,.1-.3.2-.3.2h0c0,0-.4.5-.4.5v.2c0,0,0,.2,0,.2h0c0,.1-.5.4-.5.4h0s.2,0,.2,0v.2c0,0,0,.3,0,.3h0c0,0-.3,0-.3,0h-.4c0,.1,0,.2,0,.2v.2s-1,.2-1,.2l-.2.5h-.1c0,.1-.4.5-.4.5h-.2c0,.1-.3.2-.3.2h-.1c0,.1,0,.3,0,.3h0c0,.1-.2.3-.2.3v.3c-.1,0-.2,0-.2,0h-.4c0,0,0,.1,0,.1v.3s-.1,0-.1,0h-.2c0,0-.2,0-.2,0l-.5.4h0c0,.1,0,.2,0,.2h0c0,0,.1.3.1.3v.2s-.2.4-.2.4h0c0,0-.2.2-.2.2v.2c0,0-.3,0-.3,0h-.2s-.1.2-.1.2h-.1c0,0-.1.1-.1.1h-.2c0,.1-.2.3-.2.3h-.2c0,.1-.2.2-.2.2h-.2s-.1,0-.1,0h-.1s-.1.1-.1.1h-.1c0,.1,0,.5,0,.5v.2c-.1,0-.2,0-.2,0h-.1s-.2-.1-.2-.1h-.2s-.4.3-.4.3v.2c-.1,0,.1,0,.1,0h.1c0,0-.1.1-.1.1h-.3s-.2.1-.2.1h-.4c0,.1-.1.2-.1.2l-.3.4h0c0,0,0,.1,0,.1h.2s.2,0,.2,0h0c0,0,0,.2,0,.2v.2c0,0,0,0,0,0l-.4.4v.2c-.1,0-.2,0-.2,0h0s0-.4,0-.4h0c0,0,0,0,0,0h0c0,.1-.2.6-.2.6l-.2.2-1.5.6h-.2c0,.1,0,.4,0,.4v.2c0,0-.2.2-.2.2h-.1c0,.1,0,0,0,0v-.6s0-.1,0-.1h-.2c0,0,0,0,0,0h0s-.1.2-.1.2h0s-.1,0-.1,0h-.2c0,.1-.5.6-.5.6h-.3c0,.1,0,.2,0,.2v.2c-.1,0-.2,0-.2,0h-.1s-.2,0-.2,0h-.1s-.1.2-.1.2h-.1c0,0-.3,0-.3,0h-.1c0,0-.2.3-.2.3h-.2c0,.1-.2.2-.2.2h-.5c0,0-.2,0-.2,0h0c0,0,0-.3,0-.3v-.2c0,0,.1,0,.1,0h0c0,0,.1,0,.1,0h.3c0,0,0,0,0,0h0c0,0-.2-.2-.2-.2h-.2c0,0-.1,0-.1,0h-.2c0,.1-.1.2-.1.2h0c0,.1,0,.6,0,.6h0c0,.1-.6.9-.6.9l-.2.2h-.2s-.1,0-.1,0v.2c-.1,0-.3,0-.3,0h-.1s0,0,0,0h0c0,0,0-.1,0-.1h0c0,0,0-.2,0-.2l-.2-.3h-.1c0-.1-.2-.2-.2-.2h0c0,.1,0,.7,0,.7h0c0,.1-.1.3-.1.3l-.3.2h-.1s-.3-.4-.3-.4h-.3c0,0,0,0,0,0v.2c0,0,0,.2,0,.2l-.2.2h-.2c0,.1-.1,0-.1,0v-.2s0-.3,0-.3v-.2s0-.2,0-.2v-.2s0-.1,0-.1l.4-.3h.2s0,0,0,0h.1s.1,0,.1,0h0c0,0,0-.2,0-.2l.2-.2.3-.2.3-.4.4-.6.4-.5.5-.4.6-.3,1.1-.5h0s-.1.2-.1.2h0c0,0,.1.1.1.1h.4c0,0,.2-.2.2-.2h0c0,0,0,.2,0,.2h-.2c0,.1,0,.2,0,.2l.4.5h.1c0,0,0,0,0,0h0c0,0,0-.4,0-.4h.1c0,0,.2,0,.2,0h.2s0,.2,0,.2h.1c0,0,.2.2.2.2h.1s0-.1,0-.1h0c0-.1-.4-.4-.4-.4h-.1c0-.1,0-.3,0-.3v-.2c0,0,.2-.3.2-.3l.2-.4.2-.3.4-.3.2-.2.6-.5,1.2-.5.3-.3.4-.4h.2c0,0,0,0,0,0h0c0,.1.3.2.3.2h.2s0,0,0,0h0c0-.1,0-.4,0-.4v-.2s0-.2,0-.2v-.2s.2-.3.2-.3l.3-.4.4-.4.2-.2h.2c0-.1.2-.3.2-.3l.4-.4h.1c0,0,.3-.2.3-.2h0s0,.2,0,.2h0c0,0,.3.1.3.1h.2c0,0,0-.2,0-.2h-.1s0,0,0,0v-.3c0,0-.3-.2-.3-.2v-.2s0-.3,0-.3v-.7c.1,0,.2-.7.2-.7v-.4c.1,0,.4-.1.4-.1h.6c0,0-.3-.3-.3-.3h-.3c0,0,0-.5,0-.5v-.7c.1,0,.7-.6.7-.6l.6-.4h0s0-.2,0-.2l.3-.9.3-.8-.4.7-.4.5-1.2.6-.8.5h-.4c0,.1-.3,0-.3,0l-.2-.5v-.2c-.1,0-.3-.3-.3-.3v-.4c0,0,.2-.3.2-.3h.3s.3,0,.3,0h.3s-.3-.3-.3-.3l-.5-.2h-.2c0,0-.2.5-.2.5l-.2.3h-.2c0,0-.1-.2-.1-.2v.3c0,0,0,.5,0,.5v.3c0,0,.2.9.2.9v.4s-.4.2-.4.2l-.3-.3-.6-1.1-.2-.3-.5-.5h-.2c0,0-.2.3-.2.3h-.2c0,0-.5-.3-.5-.3l-.3-.3-.2-.4-.4.2-.3.2-.4.4h-.2l-.7.3h0s0,.2,0,.2h0c0,0,0,.4,0,.4l-.9.3h-.9c0-.1.3-.3.3-.3h.4c0-.1.3-.5.3-.5v-.5c-.1,0-.2-.2-.2-.2v-.3s.3-.4.3-.4h-.3l-.2.2-.2-.3v-.6c0,0,.1-.4.1-.4v-.3c.1,0,.2-.4.2-.4v-.3s-.2-.6-.2-.6l-.5-1.2-.2-.9-.4-.5.3-.8.3-.7.4-.3h0s-.2,0-.2,0h-.2s-.1.3-.1.3l-.2.2-.5.9-.3.5h-.2c0,.1.3.3.3.3h0c0,.1,0,.5,0,.5v.4c0,0-.2.2-.2.2h-.4s-.3.3-.3.3l-.8.4-1.1.2h-.5s-.5-.4-.5-.4v-.2s0-.2,0-.2l-.8-.7-.4-.7h-.3s-.3-.2-.3-.2l-.3-.3v-.2s0-.2,0-.2h-.2c0-.1-.3-.1-.3-.1h-.3c0,0,.8-1,.8-1l.3-.6h.2c0,0,.3,0,.3,0l.4.2h.3c0,.1.1.2.1.2v.2c.1,0,0,.4,0,.4v.3c-.1,0,0,0,0,0l.4-.4.3-.4h.1s0,0,0,0l.2.4.2.4.5-.4.2-.4-.2-.2h-.3c0-.1-.7-.3-.7-.3h.2c0-.1.4-.1.4-.1h.2c0-.1-.2-.3-.2-.3l-.2-.2-.6.5h-1s-.7-.3-.7-.3h-.7c0,0-.1,0-.1,0v-.2c-.1,0,.3-.4.3-.4l.3-.2h0c0-.1-.2-.1-.2-.1h-.3c0,0-.1,0-.1,0v-.3s0,0,0,0v.2c-.1,0-.3,0-.3,0h-.2c0-.1,0-.3,0-.3l.2-.2h0s-.1,0-.1,0v.3c-.1,0-.1.2-.1.2v.3h-.2c0,0-.2,0-.2,0v-.3c-.1,0-.3-.7-.3-.7l-.4-.2v-.3c0,0,.2-.4.2-.4v-.2c-.1,0-.4,0-.4,0l-.3.2v-.2c-.1,0-.2-.2-.2-.2v-.3s0,0,0,0h0c0,0,.6-.1.6-.1h0c0,0-.5-.3-.5-.3v-.3c-.1,0,0-.2,0-.2h.4s.5-.2.5-.2l-.2-.3v-.2s0-.3,0-.3v-.4c0,0,.7-1,.7-1l.6-.9.2-.2h.3c0-.1.3,0,.3,0l.3.2h0c0,0,0-.2,0-.2v-.4c-.1,0,.3-.1.3-.1l.2-.4h0c0-.1-.2,0-.2,0l-.2.3v-.3c0,0-.1-.6-.1-.6v-.6c.1,0,.2-.3.2-.3l.2-.3h.6c0-.1.1,0,.1,0h0c0-.1-.3-.5-.3-.5v-.3c.1,0,.3-.2.3-.2l.7-.2h.4c0,0,.5.4.5.4l.3.3v.2s-.1.1-.1.1h-.1c0,.1,0,.2,0,.2h0c0,0,.2-.1.2-.1l.3-.3h.2c0,.1.2.3.2.3h.2l.5-.2.3-.2.3-.5.4-.3.6-1,.2-.4h.2c0,0,.2,0,.2,0v.3c.1,0,.3,0,.3,0h1.1c0,0,.6-.2.6-.2l.4-.3.4-.5.2-.4v-.5c.1,0,0-.6,0-.6v-.5c-.1,0-.3-1.2-.3-1.2l-.5-.8-.4-.2h-.2s.2-.5.2-.5h.5c0,0,.3,0,.3,0l.3-.2v-.2c0,0,.2-.4.2-.4v-.4s-.1-.2-.1-.2l-.2-.2-.2-.4h-.2c0-.1-.1-.1-.1-.1l-.7.7h-.4s-.3-.1-.3-.1l-.3.4-.7.4-.4.4-.7.9-.2.4h-.2s-.2-.7-.2-.7l-.8-.7-.2.2v.2c.1,0,.3.2.3.2h.3c0,0-.1.3-.1.3v.3c0,0-.4-.3-.4-.3l-.5-.4-.5-.2h-1.4s-.9.4-.9.4h0c0,0,0-.1,0-.1h-.2c0,0,0,.3,0,.3h0c0,.1-.2.1-.2.1h-.4c0,0-.7-.3-.7-.3l-1.6-.4-.4-.2-.4-.6v-.4s.2-.2.2-.2v-.5s-.3-.1-.3-.1l-.6-.8-.2-.3h0s.1,0,.1,0h.2c0,0,.5,0,.5,0l.2-.5h.4c0-.1.4,0,.4,0h0c0-.1,0-.2,0-.2l-1-.3h-.1c0,0-1.7-.4-1.7-.4l-1.4-.8v-.2c-.1,0-.2-.4-.2-.4l.2-.3.2-.2v.2s0,.2,0,.2l.8-.4.4-.6h.8c0-.1.2-.3.2-.3l.2-.3.3-.5.5-.3.3-.3h.4c0-.1.4,0,.4,0h.1s.7,0,.7,0h.2c0-.1,0-.2,0-.2h0c0-.1-.7-.6-.7-.6v-.2c0,0,.2-.2.2-.2l.8-.5.6-.2h.3s.9-.7.9-.7l.5-.2h.9c0-.1.8-.2.8-.2l.2.2h-.4c0,0-.2,0-.2,0h.1c0,0,.1.3.1.3v.2s-.3.7-.3.7v.5s-.1.2-.1.2l-.2.2.8.8h1.2s.7,0,.7,0l.4.2h.3c0,0,.9,0,.9,0l.7.2h.3c0,0,.6-1.2.6-1.2l.2-.2.3.2.3.2h.2c0-.1.2.2.2.2v-.6c0,0-.2-.2-.2-.2l-1-.4-.7.2-.2-.2v-.5c0,0-.6-1.2-.6-1.2l-.3-.2h-.3s-.2-.4-.2-.4v-.5c-.1,0,.2-.2.2-.2h.3c0,0,.3,0,.3,0l.3.7h.3c0,.1,0,.8,0,.8l.3.6.7.6.6-.2h.4s.2.1.2.1l.6.5h.3c0,0,1-.2,1-.2v-.5s0-.4,0-.4l-.2-.2h-.7s-.5-.3-.5-.3h-.4c0,.1-.8.7-.8.7l-.4-.2-.3-.3-.4-.3v-.6c0,0,.3-.7.3-.7l.3-.3-.2-.2-.6-.2-1,.2v-.2s0-.3,0-.3l-.4.5h-.4c0-.1-.6,0-.6,0l-1.2-.5-.4-.6-.2-.5-.3-1.2-.4-.8-2.9-2.7-1.3-.7-.6-.8-.4-.2h-.4c0,0-.5-.3-.5-.3l.3-.3h.2c0-.1-.2.2-.2.2h.2c0,0,.3-.1.3-.1l.2-.2.2-.9.2-1.4v-.6c0,0,1.6.1,1.6.1h1.1c0,0,.4-.2.4-.2l1.4-.2.4-.2.7-.5.8-.9.7-1.2v-.3c.1,0,.1,0,.1,0h0s0-.5,0-.5v-1c0,0,.4-1,.4-1l1.4-2.3.7-.9.2-.4.2-.3.2.3h0c0,0,0,.2,0,.2h-.1c0,0-.2.4-.2.4l-.3.2h0c0,.1.2,0,.2,0l.5-.2.3-.3,1.5-.5.8-.8v-.2s1.2-1,1.2-1h.2s.2.2.2.2l-.3.7.2.2-.2.8h.4s0,.4,0,.4v-.3s0-.5,0-.5v-.4s0-.3,0-.3h.3c0,.1.7-.2.7-.2h-.8s-.5-.8-.5-.8h-.3s.9-1.1.9-1.1l.9-.7h.2s0,.1,0,.1v.2s-.2.1-.2.1l-.2.2v.2c0,0,.2,0,.2,0l.4-.2.2-.2h.9s.3-.1.3-.1h0c0-.1,1.1-.2,1.1-.2h.2c0-.1.7-.7.7-.7l.7-.7.3-.4.5-1,.4-.6.7-.7h.2c0,0-.2.2-.2.2l-.2.3.2.4,1.5.7h.4s.2.5.2.5v.4c-.1,0-.5.5-.5.5l-.8.5.2.2.2.4h.2c0,0,.4-.1.4-.1l.3-.3.6-.9.2-.5h.1c0-.1.5,0,.5,0l.3.2.3.4v.4c-.1,0-.3.2-.3.2l.4.3h.5c0,0,.5.3.5.3l.6-.5h.5c0-.1.5,0,.5,0l.6-.3,1,.4h.3c0-.1.4,0,.4,0l.4.2.2.3-.5.5v.6c0,0,0,.2,0,.2h.3s0,.4,0,.4h.2c0,0,.9,0,.9,0v.2c0,0-.1.2-.1.2l-.3.4,1.7.2.2-.2h.3c0,0,.7-.4.7-.4h.3c0,.1.3.5.3.5h.3c0,0,.3,0,.3,0l.7-.5h.8s.3.1.3.1h.3c0,0,1,.5,1,.5h.4c0,0,.5.7.5.7h.3s.3-.3.3-.3h.2s.2.3.2.3h.4c0,0,.2.5.2.5l.2.2,1.5.3h.7c0-.1,1.1-.1,1.1-.1l.5.2h.5s.9.7.9.7h.5c0,.1,0,.3,0,.3l1.3.2.5-.4h.8c0-.1.7-.4.7-.4h.9c0,0,.2,0,.2,0h.1c0-.1,1.2.4,1.2.4l.7.6.3.5,1.4.7.4.4.3.4h.2s.1,0,.1,0h.5s.2,0,.2,0h0ZM36.2,253.3h0s0,0,0,0l.3-.2.5-.3h0c0,0-.3.3-.3.3l-.4.3h0ZM23.7,267.5h0c0,.1.2.1.2.1h.3c0,0,.4.2.4.2h.4s.5-.4.5-.4h.3c0-.1.3-.2.3-.2h.3c0,0,.3.3.3.3h.1c0,.1,0,.3,0,.3v.3c0,0,.2.2.2.2l.6.2h.4c0,0,0,.2,0,.2v.2c0,0,.4.1.4.1h.3s.2,0,.2,0h.5s.7.2.7.2v.5c-.1,0-.3.2-.3.2h-.6c0,0-.6,0-.6,0l-.2.3-.2.3v.3s-.1.1-.1.1h-.1c0,0-.1-.1-.1-.1v-.5c-.1,0-.2-.1-.2-.1h-.1c0,0-.3-.3-.3-.3h-.3c0-.1-.2-.1-.2-.1v-.2c-.1,0-.2-.3-.2-.3h-.1c0-.1-.2-.3-.2-.3l-.2-.2-.7-.3h-.2s-.2,0-.2,0l-.3.2-.3.2-.3.2h-.3s-.3,0-.3,0l-.2-.2v-.2c-.1,0-.2-.3-.2-.3v-.5s.2-.6.2-.6h.2c0-.1.4.3.4.3h0ZM78.5,281.6h-.3s-.1,0-.1,0h0c0,0,0-.3,0-.3h0c0-.1.1-.1.1-.1h.2c0,.1,0,.2,0,.2v.2h0,0ZM20.7,283.3l.5.3h.3s.3.2.3.2v.2c.1,0-.3-.2-.3-.2h-.6s-.8-.6-.8-.6h-.3c0-.1,0-.5,0-.5l.3-.2v.5c.1,0,.4.2.4.2h0ZM69,283.8h-.1s.2-.2.2-.2v-.5c.1,0,.2,0,.2,0h0c0,0-.2.5-.2.5h0q0,0,0,0ZM79.2,283.4h0c0,.1,0,.2,0,.2v.2c0,0,0,.4,0,.4v.2s-.1.1-.1.1h0c0,0,0,0,0,0h0c0,0,0-.2,0-.2h-.2s0-.3,0-.3h0c0-.1,0-.2,0-.2h0c0,0,.1-.5.1-.5h0s0,0,0,0h0s0,0,0,0v-.2c0,0,.1,0,.1,0v.2h0ZM82.1,283.4h0c0,.1.4,0,.4,0h.1s0,0,0,0h0c0,0-.2.2-.2.2l-.5.2-.4.3h0s0-.3,0-.3h0c0-.1,0-.3,0-.3h0c0,0,0-.2,0-.2l.2-.2h.1c0,0,.4,0,.4,0h0ZM85.1,283.9h0c0,.1-.2,0-.2,0h-.1c0,0,.4-.4.4-.4h0c0,0,0,.3,0,.3h0ZM36.1,283.7l.2.2h.1s.4,0,.4,0h.1s.1.2.1.2v.2c0,0,0,.3,0,.3v.2c0,0,0,.3,0,.3h0c0,.1.2.3.2.3v.3c0,0,0,.3,0,.3h-.4c0,0-.4.1-.4.1l-.4.2h0c0,.1,0,.3,0,.3h0c0,0,0,0,0,0l-.2-.2h-.2c0,0-.7-.2-.7-.2l-.8-.6h-.4c0-.1-.4-.5-.4-.5l-.3-.5h.2c0,0,.2-.1.2-.1h1c0,0,.1-.3.1-.3h.1c0,0,.3-.2.3-.2l.3-.2h.1s.1,0,.1,0h.3c0-.1.1-.2.1-.2h.1q0,0,0,0ZM79,286.4h-.3c0,0,0,0,0,0v-.3c.1,0,.2-.2.2-.2h0s.3-.4.3-.4l.3-.3.3-.4.3-.6v-.2c0,0,.2,0,.2,0h.2c0,.1.1.3.1.3v.2c0,0-.8.8-.8.8h0c0,.1,0,.4,0,.4h0c0,0-.1.1-.1.1h0c0,.1,0,.3,0,.3h0c0,.1-.1.1-.1.1h0c0,0,0,.2,0,.2h-.2ZM78.3,285.2h-.1c0,.1-.5,0-.5,0v-.3c0,0,.4-.2.4-.2l.4.3h-.3q0,.1,0,.1ZM86.4,286.3h-.1s.2-.3.2-.3l.2-.3.2-.2h.3c0,0,0,0,0,0l-.4.3-.4.5h0ZM48.3,292h-.2c0,0-.2,0-.2,0v-.4c-.1,0,0,0,0,0l.2-.3.5-.2h.1s-.5,1-.5,1h0ZM67.9,292.4h0s-.2-.1-.2-.1h-.1c0-.1,0-.3,0-.3l.3-.2h.2s0,0,0,0h0c0,0,0,.2,0,.2h0c0,.1-.2.4-.2.4h0ZM68.1,292.9h0s0-.2,0-.2h0s.3.2.3.2h.2s.1.2.1.2h0s0,0,0,0h0s0,.3,0,.3l-.2.3h0c0,0-.1,0-.1,0h0s0-.2,0-.2v-.2h-.1l-.2.2h0c0,0,0,.2,0,.2h0c0,0-.2.1-.2.1h-.2s-.2.1-.2.1h0c0,0,0-.3,0-.3h0s0,.3,0,.3v.2c-.1,0-.3.1-.3.1h0c0,0-.1,0-.1,0h-.2c0,0-.1,0-.1,0l-.8-.3h-.2c0-.1.6-.8.6-.8l.3-.3h.2s.2,0,.2,0h0s0-.3,0-.3l-.2-.2h0c0,0,.4-.2.4-.2h.1s.2,0,.2,0h.2c0,.1.1.3.1.3h0ZM109.4,293.8h.6c0,.1.4,0,.4,0l.4.7.2.5v.4c.1,0,.2.4.2.4v.3c.1,0,0,0,0,0l-.2-.2-.2-.5v-.2c0,0-.2,0-.2,0v-.2c0,0-.3-.5-.3-.5h0c0-.1,0-.2,0-.2h0s0,0,0,0h0s0,.4,0,.4v.3c0,0,.5.8.5.8l.3.4h0c0,.1,0,.5,0,.5v.2c-.1,0,0,.4,0,.4h0c0,0,0,.1,0,.1l-.4.2-.4.7-.4.4h-.2c0,0,0,0,0,0h0c0-.1,0-.3,0-.3v-.2s0-.2,0-.2l.2-.8v-.3s-.2-.4-.2-.4l-.2-.3v-.4c0,0-.2-1.1-.2-1.1v-.4c0,0-.2-.3-.2-.3v-.2c-.1,0-.2-.3-.2-.3v-.3c0,0,0-.1,0-.1l.2.2.2.4v.3h.1,0ZM110.3,293.5h0c0,.1-.3,0-.3,0l-.3-.2-.2-.2h0c0,0,.3-.2.3-.2l.3.2.2.3ZM107,293.4l.3.4h0c0,0,0,.4,0,.4h-.2c0,0,0,.2,0,.2h.1c0,0,0,0,0,0l.4-.4h.1c0,0,0,0,0,0h.4c0,.1.4.3.4.3v.2c.1,0,.2.3.2.3v.6c0,0-.4.1-.4.1h-.1s-.2,0-.2,0l-.2.2.2.2h.6s.2.4.2.4v.3c0,0,0,.5,0,.5h-.4c0-.1-.3-.4-.3-.4l-.6-.4h-.2s-.1,0-.1,0v.2s0,.5,0,.5l-.2.3h-.5c0-.1-.2-.5-.2-.5l-.2-.6-.7-.7h-.2c0-.1-.3-.6-.3-.6v-.3c.1,0,.1-.2.1-.2h.1c0,0,.2-.2.2-.2v-.3c.1,0,.3.3.3.3l.2.3v-.4c.1,0,.3,0,.3,0h.1s.2-.2.2-.2h.2c0,0,.1,0,.1,0h0ZM67,295.3v.2s.1,0,.1,0l.4-.2h.2c0,0,.2,0,.2,0h.2c0,.1,0,.2,0,.2h0c0,.1-.2.3-.2.3h0c0,.1.2.4.2.4h.4c0,.1,0,.2,0,.2h0c0,0-.3.5-.3.5h-.1c0,0,0,.1,0,.1h-.5c0,0-.5-.2-.5-.2h-.2s0,0,0,0h-.1c0,.1,0,.2,0,.2h.4s.1.2.1.2h0c0,.1,0,.3,0,.3h0c0,0-.2.1-.2.1h-.2l-.3.2v.2c-.1,0-.7,0-.7,0l-.4.3h-.1c0,.1,0,.3,0,.3h-.1c0,.1-.3.2-.3.2h.2c0,0,0,.2,0,.2h0c0,.1,0,.2,0,.2l-.3.4-.5.4h-.1s0,0,0,0h0c0-.1.6-.9.6-.9h0s-.2,0-.2,0l-.3-.2h-.2c0,.1,0,.1,0,.1v-.2c0,0,.2-.2.2-.2h0c0,0,0-.1,0-.1h-.2s-.3,0-.3,0h-.2s-.1.2-.1.2h0s.3,0,.3,0h0c0,0,0,.2,0,.2h0c0,.1,0,.2,0,.2v.2c0,0-.2.2-.2.2h-.2s-.4-.5-.4-.5l-.2-.7-.3-.6h0c0-.1,0-.5,0-.5l.3-.5h.3c0-.1.2-.3.2-.3h.2c0,0,.1,0,.1,0h.2c0,0,0,.3,0,.3h0c0,0,0,.1,0,.1h.1c0,.1.2.5.2.5l.2.3h.1c0,.1.2.2.2.2l-.2-.3v-.3c0,0-.1-.7-.1-.7v-.2s0,0,0,0h.3s0,0,0,0l-.3-.2-.2-.2h0c0-.1,0-.3,0-.3v-.2c.1,0,.2,0,.2,0h0s.2,0,.2,0h0c0,0,.2.5.2.5h.1c0,.1,0,.1,0,.1h0c0,0,0-.2,0-.2h0c0,0,0-.1,0-.1h.2c0,0,0,0,0,0h0v-.3h0c0,0,0-.2,0-.2v-.2c-.1,0,0,0,0,0l.5.2.2.2v.3h-.1ZM66.2,295.2h0c0,.1,0,0,0,0h-.1c0-.1-.3-.3-.3-.3h-.1c0-.1,0-.2,0-.2h0c0,0,.3.1.3.1v.2c.1,0,.2.2.2.2h0ZM108.7,297.3l.2.5v.4c.1,0,.3.4.3.4l.2.9v.3c0,0,.1.2.1.2v.5s0,.1,0,.1h0c0,0,0,.2,0,.2v.4c0,0,0,.6,0,.6v.3c0,0-.1,0-.1,0h-.2c0-.1-.1-.3-.1-.3v-.2c0,0-.3-.6-.3-.6v-.3c0,0,0-.2,0-.2h0c0-.1,0-.2,0-.2v-.2c.1,0,.1,0,.1,0h-.1c0,0-.2,0-.2,0l-.2-.2h-.1c0,0,0-.4,0-.4h0c0,0-.3,0-.3,0h-.1c0,0,0-.2,0-.2v-.2s0-.2,0-.2l.3-.4h0c0,0-.1,0-.1,0h-.2c0-.1,0-.6,0-.6l-.2-.3h-.1s-.2.8-.2.8v.2c-.1,0-.5.1-.5.1v-.2c0,0,.1-.2.1-.2v-.6c-.1,0-.1-.2-.1-.2v-.2c0,0,.3,0,.3,0h.1c0,0,.1-.2.1-.2h0c0-.1.2-.5.2-.5h0c0,0,.2,0,.2,0l.5.4h.2c0,0,.2.3.2.3h0ZM26.8,298.1l-.2.2h-.2c0,0,0-.2,0-.2h0c0,0,.6-.2.6-.2,0,0-.1.2-.1.2ZM66.7,298.3h-.3c0,.1,0,.1,0,.1l-.2.3h-.1c0,.1-.2,0-.2,0v-.3s.2-.2.2-.2h.8c0,0,0,.1,0,.1h0c0,0,0,0,0,0h-.2s0,0,0,0ZM112.5,298.8h.2c0,.1,0,0,0,0h.2s.3.1.3.1l.2.2v.2c0,0,.1.1.1.1v.3s0,.3,0,.3v.2s0,.1,0,.1h0c0,0,0,.1,0,.1l-.2-.3-.3-.5h-.2c0-.1,0,0,0,0h0c0,.1.2.4.2.4v.2s.1.2.1.2h0c0,.1,0,.3,0,.3v.2h0c0,.1,0,.2,0,.2h0s-.4,0-.4,0h-.2c0,0-.3,0-.3,0h0c0,0,0-.2,0-.2v-.3s0-.5,0-.5v-.4s-.2-.3-.2-.3l-.2-.2-.2-.2v-.2c-.1,0-.1-.1-.1-.1h.2c0-.1.4,0,.4,0l.8.3h0ZM111,299.5l.2.3h.2s.1.2.1.2v.3c0,0,0,.2,0,.2h0s-.1,0-.1,0v.4c0,0,0,.4,0,.4v.4s-.2.4-.2.4v.3s0,0,0,0h0s0,0,0,0h-.1c0,0-.1.2-.1.2h-.2v-.5c-.1,0,0-.9,0-.9l.3-.2-.2-.2-.3-.3v-.2s-.2-.5-.2-.5h0c0-.1,0-.5,0-.5l.2-.3h.3c0,0,.2,0,.2,0h.1c0,.1,0,.2,0,.2h0ZM113.9,300.9h0c0,0-.3,0-.3,0h-.1s0-.2,0-.2v-.2s0-.1,0-.1v-.2c0,0,.1-.4.1-.4l.4.5v.2c.1,0,.2.3.2.3h-.2c0,0-.2.1-.2.1h0ZM27.7,300.4h.3c0,0,.2,0,.2,0h.2s0,.1,0,.1l-.3.2h-.1s-.3-.3-.3-.3h0ZM63.9,300.9h-.1s-.2-.1-.2-.1h0c0-.1.2-.3.2-.3h.2s0,.1,0,.1h0c0,.1,0,.2,0,.2h0c0,0-.1.1-.1.1h0ZM62.8,301.2h-.2c0,0,0,0,0,0h0c0,0,0-.2,0-.2h0c0-.1.2-.4.2-.4l.2-.2h.1s0,.1,0,.1l-.2.2-.4.4h0ZM115.4,302.6v.7s-.1,0-.1,0h-.3c0,0-.2,0-.2,0h0c0,0,0-.2,0-.2v-.2s0-.1,0-.1h-.4s-.1,0-.1,0v-.2c0,0,0-.3,0-.3h0c0-.1.2-.2.2-.2v-.3c.1,0,.2,0,.2,0l.3-.7h.1s.3.5.3.5l.3.6v.6h-.1ZM113.8,302h-.1s-.1,0-.1,0l-.3-.3h0c0-.1,0-.2,0-.2l.2-.2h0s.5,0,.5,0h.1c0,0,0,.2,0,.2h0c0,0,0,.2,0,.2h0c0,.1,0,.2,0,.2h0c0,.1-.3.3-.3.3h0ZM112,301.6h.4c0,0,.4,0,.4,0v.2c.1,0,.2.2.2.2v.2c0,0,0,.2,0,.2h0c0,.1,0,.2,0,.2h0s.8.4.8.4l.4.4v.2c.1,0,.2.2.2.2l.2.5.3.5.2.2v.2c0,0,0,0,0,0h-.2c0-.1-.5-.5-.5-.5h0s0,.2,0,.2v.2c0,0-.2.1-.2.1h0s.4,0,.4,0l.3.3h.1c0,0,.1.3.1.3h0c0,0,0,.3,0,.3h0c0,0,0,.1,0,.1h0s.4,0,.4,0h0c0,0,0,.8,0,.8v.3c0,0,0,.1,0,.1v.2s0,.1,0,.1h0c0,.1,0,.3,0,.3v.3c0,0-.2,0-.2,0h-.3c0,0-.2-.4-.2-.4l-.2-.4h0c0,0-.2-.1-.2-.1h0s-.1,0-.1,0v-.2c-.1,0,0-.2,0-.2v-.2c0,0,0-.1,0-.1h-.1s0,0,0,0v.2s0,.2,0,.2h-.2c0,0-.3-.6-.3-.6l-.3-.5h-.1c0-.1,0-.2,0-.2h.2c0,0,.1,0,.1,0h0c0,0-.3-.5-.3-.5h0c0-.1.1-.4.1-.4h-.1c0,0-.4,0-.4,0h-.1s-.1-.2-.1-.2v-.2c0,0-.4,0-.4,0h-.1s-.2-.2-.2-.2v-.2c0,0,0,0,0,0h.2c0-.1.1-.1.1-.1h.2c0,.1,0,.1,0,.1l.2-.2v-.2s.2-.1.2-.1v-.2s-.1-.3-.1-.3h-.2c0,0-.4,0-.4,0l-.3.2h-.1c0,0,0-.2,0-.2l.4-.4.2-.2h0c0-.1-.1-.3-.1-.3v-.4s0,0,0,0h0ZM118,305.2v.5c0,0-.2.5-.2.5l-.2.2h-.2c0,0-.1-.3-.1-.3h-.1s-.1,0-.1,0v-.2c0,0,0-.2,0-.2v-.2c0,0-.1.1-.1.1h-.1c0,.1-.3.3-.3.3l-.2.3v.2c0,0-.2-.2-.2-.2v-.6c0,0,0-.2,0-.2l.2-.4.3-.3v-1c0,0,.9-.5.9-.5h0s.3.4.3.4l.3.5v.2c0,0,0,.4,0,.4v.3h0,0ZM60.8,303.8h0c0,.1-.2.1-.2.1h0s0-.2,0-.2l.3-.3h0s0,0,0,0h0c0,.1,0,.4,0,.4h0ZM112.6,304.9h0v.2l-.3.3h0c0,0,0,.2,0,.2h0c0,0-.1.2-.1.2l-.2.2v-.6s-.2-.3-.2-.3l.2-.2h.2s.3,0,.3,0l.3-.2h0q0,0,0,0ZM48.8,305.9h.1s.2-.3.2-.3h0s0,0,0,0v.2c0,0,0,.3,0,.3h.1c0,.1,0,.2,0,.2h-.3c0,.1-.2,0-.2,0h-.1s-.1.1-.1.1h0c0-.1,0-.7,0-.7h0c0,0,.1-.3.1-.3h.2c0,0,0,0,0,0h0c0,0,0,.2,0,.2v.2h0ZM49.7,305.8v.3s-.4-.2-.4-.2h0c0-.1,0-.2,0-.2h.3s0,0,0,0h0ZM113.7,307.6h0c0,0,0,0,0,0h0c0-.1.2-.1.2-.1h.1s0,.1,0,.1v.2s0,.3,0,.3h0c0,.1,0,.3,0,.3h-.2c0-.1-.2-.3-.2-.3l-.3-.4-.2-.3h0c0-.1,0-.2,0-.2l-.2-.5v-.4c-.1,0-.3,0-.3,0h-.2c0-.1,0-.3,0-.3v-.2c0,0,.4,0,.4,0l.5.5v.2c0,0,.2.2.2.2v.3s.1.1.1.1l.2.4h0ZM50.7,306.6h-.1c0,0,0,.2,0,.2h-.1s0,.1,0,.1l-.3.4h-.1c0,0,.1-.3.1-.3h0v-.5s0,0,0,0h0c0,0,.1-.3.1-.3h.1s.1-.3.1-.3h0s0,0,0,0v.2c0,0,0,.2,0,.2v.2s0,0,0,0h0ZM117.2,306.8l.2.5v.2s-.2,0-.2,0h-.2s0,0,0,0h0c0,0,0-.4,0-.4v-.2c-.1,0-.3,0-.3,0h-.1c0,0,0-.2,0-.2v-.2c0,0,0-.3,0-.3v-.2h0c0,0,.1,0,.1,0l.3.2.2.6h0ZM51.6,306.5v.3s0,0,0,0h0c0,0-.1,0-.1,0h0c0,0,0-.2,0-.2h0c0,0,0,0,0,0v-.2s0,0,0,0h0c0-.1,0-.2,0-.2v.3h0ZM51.9,307.3h0s0,0,0,0v-.2c0,0,0,0,0,0h.2c0,0,0,.2,0,.2h0c0,.1,0,.1,0,.1h0ZM42.3,307.2l.2.7h0c0,.1.1.2.1.2h.2c0,0,.1.2.1.2h.1c0,.1,0,.2,0,.2l-.6-.3-.4.4h-.1c0,0-1.1,0-1.1,0h-.2c0,0-.1.2-.1.2l-.3.4h-.1c0,.1-.1.2-.1.2h-.3c0,0-.4,0-.4,0h-.2s0-.2,0-.2v-.3c0,0,0,0,0,0v-.2s.4-.2.4-.2h.1c0-.1.4-.9.4-.9h.1c0-.1.1-.1.1-.1h.4c0,0,.3-.2.3-.2l.6-.3h.1s.5,0,.5,0h.1c0,0,0,.1,0,.1h0q0,.1,0,.1ZM45.1,307.8h0s-.2-.1-.2-.1h0c0,0,0-.2,0-.2l.3-.2h.1c0,.1,0,.2,0,.2v.3c0,0-.1,0-.1,0h0ZM44.5,309.6h-.2c0,0-.2,0-.2,0l-.2-.2v-.2s.4.1.4.1h0c0,0,.1.2.1.2h0ZM37.5,310.6h-.1s0,0,0,0v-.2s0-.3,0-.3h.1c0-.1,0-.1,0-.1h0s.1.2.1.2h.1c0,0,0,0,0,0h-.1c0,0-.2.2-.2.2ZM36.8,310.9h0c0,0,0,0,0,0h0s-.2,0-.2,0h0s-.1-.3-.1-.3h0c0-.1,0-.2,0-.2h.1c0,0,.2-.2.2-.2h.2s.3.2.3.2h.1c0,.1,0,.2,0,.2h-.1c0,0-.2.1-.2.1h0ZM35,311.6v.2c.1,0,.3-.1.3-.1v-.2c.1,0,.2-.2.2-.2h0c0,0,0,0,0,0l.2.2-.2.2-.4.3v.2c-.1,0-.1,0-.1,0h.4c0,0,.1,0,.1,0h0c0,0-.1.2-.1.2h-.2c0,0-.2.2-.2.2l-.4.3-.2.2h-.2c0,0-.3.1-.3.1l-.5.2h-.3c0,.1,0,.2,0,.2h0s-.1,0-.1,0h-.1c0,0-.1.2-.1.2h0c0,0-.2,0-.2,0h0c0,0,0,0,0,0l-.3-.2h0c0,0,.2-.3.2-.3h.2c0,0,.3,0,.3,0l.2-.2.5-.2h.2c0-.1.1-.6.1-.6h.1c0,0,0-.2,0-.2h.3s.1.2.1.2h0s0,0,0,0v-.2s.2-.1.2-.1h0c0,0-.3-.2-.3-.2h-.2s-.1,0-.1,0h-.1c0,0,0-.2,0-.2h0c0-.1,0-.2,0-.2h0c0-.1.1-.3.1-.3h.1c0,0,.3-.1.3-.1h.3c0,0,.1-.1.1-.1h.1s0,.4,0,.4h0ZM36,312.3h0s0,0,0,0h0c0,0,0-.2,0-.2v-.2c.1,0,.2,0,.2,0h0s0,0,0,0v.2c0,0-.2.1-.2.1h0q0,.1,0,.1ZM31.9,313.7l-.7.4-.2.3-.2.3v.2c-.1,0-.2,0-.2,0h-.1c0,0-.2.3-.2.3h0s-.8.5-.8.5h0s0-.1,0-.1l.2-.2.2-.2.2-.3h0c0,0,0-.2,0-.2v-.3s0-.1,0-.1l.2-.2h.1c0-.1.2-.1.2-.1h.3s.1,0,.1,0h0c0,0,0-.2,0-.2h0c0-.1,0-.3,0-.3v-.2c0,0,.3-.2.3-.2h.2c0-.1.3-.2.3-.2h.2s.4.2.4.2h0c0,0,0,.3,0,.3v.2c0,0-.3.2-.3.2h0ZM27.8,315.7v.2s0,0,0,0h-.4c0,0-.2,0-.2,0h0c0,0,0-.2,0-.2h.4c0-.1.2-.1.2-.1h.1c0,0,0,.1,0,.1h0ZM25.4,316.7h-.1c0,.1,0,0,0,0v-.2s0-.1,0-.1l.3-.3h.2s0,.1,0,.1h0c0,0,0,.2,0,.2h0c0,0,0,0,0,0h0s0,0,0,0ZM16.2,318.8l-1.2.2h-.2c0-.1.2-.2.2-.2h.2s.5-.2.5-.2l.6-.2.5-.2h.4c0-.1.1-.3.1-.3h-.3c0-.1,0-.2,0-.2h.2c0,0,.1-.2.1-.2l.3-.2.3.2h0c0,.1,0,.3,0,.3v.2c0,0-.3,0-.3,0h0c0,0,.1.3.1.3l-.5.2-.8.2h0ZM21.4,317.9h-.2c0,0-.2,0-.2,0v-.2c0,0,.2-.1.2-.1h.2c0-.1.2,0,.2,0l.2.2-.3.2h0ZM18.8,318.4l.5.2h.6s.2,0,.2,0h0s-.4.1-.4.1h-.1s-.3,0-.3,0h-.2s-.5,0-.5,0h-.4c0,0-.1,0-.1,0h-.1c0,0-.1-.2-.1-.2h0c0,0,.1-.1.1-.1h.3c0,.1,0,0,0,0h.3c0,0,.2,0,.2,0ZM13.1,318.9h0c0,.1-.2,0-.2,0h0c0,0,0-.2,0-.2v-.2h.4c0,0,.1.2.1.2h0c0,0-.1.2-.1.2h0ZM11.8,319.4h0c0,.1.3.1.3.1h0v.3h0c0,0,0,0,0,0h0c0,0-.1,0-.1,0l-.5.3-.2-.2-.3.3.2-.7h.2c0-.1,0-.2,0-.2v-.2s0-.3,0-.3h.2s.1.2.1.2h0c0,0,0,.3,0,.3ZM10.5,320h0s-.1,0-.1,0h-.4s-.2,0-.2,0h-.2s-.2,0-.2,0h0c0,0,0-.2,0-.2l.8-.2h.2c0-.1.1-.2.1-.2v-.3c.1,0,.2,0,.2,0h0s.1.1.1.1h0c0,.1,0,.2,0,.2h0c0,.1,0,.4,0,.4ZM8.8,320.2h0c0,.1,0,.1,0,.1l-.3-.2h0c0,0,.2-.2.2-.2h0c0,0,0-.2,0-.2h-.1c0-.1-.3-.3-.3-.3h0c0-.1,0-.2,0-.2h.1s.4,0,.4,0l.2.2h.2c0,0,.4.1.4.1h-.2c0,0-.1.2-.1.2v.3c-.1,0-.3.1-.3.1h0ZM13.1,319.6h-.2c0,0-.3,0-.3,0v-.2s.3.2.3.2h.1ZM12.5,319.7v.2c-.1,0-.3,0-.3,0v-.3s0,0,0,0l.2.2h0s0,0,0,0Z"/>
  <path id="US-AL" d="M444.8,198.6l.2,1.5.2,1.5.2,1.5.2,1.5.2,1.5.2,1.5.2,1.5.2,1.5.2,1.4.2,1.4.2,1.4.2,1.4.2,1.4.2,1.4.2,1.4.2,1.4.2.7.2,1,1.3,3.1.4,1.3v.5c-.1,0,0,.5,0,.5l.4.4v.4c0,0-.7.5-.7.5l-.4.6-.3,1.1h0l-.6,1.9v1.1l.5,1.6h0v.7c.1,0-.2,3-.2,3l.2,2,.6,1.3h-6.1s-18.2,0-18.2,0v.8c-.1,0,0,.8,0,.8l.3.7,1.4,1.3v.3c.1,0-.1,1-.1,1v.7s-.1.4-.1.4l-.3.3v.4c0,0-.3,0-.3,0l-1,1.1-3.6.4.2-.2h.8s1.1-.4,1.1-.4l-.2-.6-.4-.7h-.4c0,0-.2-.5-.2-.5v-1.2l-.2-.7-.6-.7h-.2c0,.1-.4,1.4-.4,1.4l-.4,1.6-.2.5h-1.1s-1,0-1,0h-.5s-.1-2.2-.1-2.2v-2c0,0-.2-2-.2-2v-2c0,0-.2-2.1-.2-2.1v-2.1c0,0-.2-2.1-.2-2.1v-2.1c0,0,.1-2,.1-2l.2-2,.2-2,.2-2,.2-2.1.2-2.1.2-2.1.2-2.1.2-2.1.2-2.1.2-2.1.2-2.1.2-2.1.2-2.1.2-2.1.2-2.1v-.5c0,0,0-.2,0-.2v-.3s-.8-.8-.8-.8l-.2-.2h-.1c0-.1.1-.1.1-.1h1.5s1.5,0,1.5,0h1.5s1.5,0,1.5,0h1.5s1.5,0,1.5,0h1.5s1.5,0,1.5,0h1.5s1.5,0,1.5,0h1.5s1.5,0,1.5,0h1.5s1.5,0,1.5,0h1.5s1.5,0,1.5,0h0ZM421.7,251.5l-.8.2h-1.2s-.2-.1-.2-.1l.5-.2,1.5-.2.4.2h0Z"/>
  <path id="US-AR" d="M406.3,187.1v.2s.2.5.2.5v.4c-.1,0-.5,0-.5,0h-.2c0,.1,0,.3,0,.3h0c0,0,0,.3,0,.3v.2s-.1.3-.1.3l-1.1.6-.5.8.2,1-.4,1-.9,1-.4,1.1v1.3c.1,0-.3,1-.3,1l-1.1.8-.3.5v.7c.1,0-.2.5-.2.5l-.9.5-.5.5v.5c0,0-.3.2-.3.2h-.4c0,.1-.2.9-.2.9l-.2,1.8-.5,1-.8.2-.4.4v.5c0,0-.5.6-.5.6l-.9.7-.3.7.3.7v.3c0,0-.3.2-.3.2l-.9.3-.2.2v.2c0,0,0,.3,0,.3v.5c.1,0,0,.8,0,.8l-.2.3-.2.3-.8.6-.2.5.3.3v.3s-.4.4-.4.4v.4c.1,0,.2.3.2.3l.4.2v.7c.1,0-.1.9-.1.9v.7s.5.6.5.6v.3c0,0-.3,2-.3,2v.3s-3.5,0-3.5,0h-1.7s-5.1,0-5.1,0h-1.7s-5.1,0-5.1,0h-1.7s-5.1,0-5.1,0h-1.7s-1.7,0-1.7,0v-3s0-1.5,0-1.5v-1.5s-.5-.3-.5-.3h-.9c0-.1-.5,0-.5,0h-.5c0,0-.3.2-.3.2h-.2s-.2,0-.2,0v-.2c-.1,0-.5-.2-.5-.2l-.5-.5v-1.2s0-1.2,0-1.2v-1.2s0-1.2,0-1.2v-1.2s0-1.2,0-1.2v-1.2s0-1.2,0-1.2v-1.2s0-1.2,0-1.2v-1.2s0-1.2,0-1.2v-1.2s0-1.2,0-1.2v-1.2s0-1.2,0-1.2l-.2-1.6-.2-1.6-.2-1.6-.2-1.6-.2-1.6-.2-1.6-.2-1.6-.2-1.6h42l.4.9.4.6v.4c0,0,0,.4,0,.4l-.7.9-.6.4-.3.5-.5.4-.7,1.2h1.5s1.5,0,1.5,0h1.5s1.7,0,1.7,0h0Z"/>
  <path id="US-AZ" d="M224.3,175.5v12.4s0,51.9,0,51.9h-8.8s-3.3,0-3.3,0h-3.3s-3.3,0-3.3,0l-4.5-1.6-4.5-1.6-4.5-1.6-4.5-1.6-4.5-1.6-4.5-1.6-4.5-1.6-4.5-1.6.5-.6.6-1.7h0c0,0,1.3-.2,1.3-.2l.6-.4.4-.8v-.8c0,0-.1-.8-.1-.8l-.6-.6-.9-.4-.5-1.1v-1.8c-.1,0,0-1,0-1h.5c0-.1.5-.6.5-.6l.4-.7.3-.8.2-.9v-1.1s0-1.3,0-1.3l.8-1.7.8-1,1.6-1.3.4-.4v-.3l-.3-.4-1.4-.9-.6-.6v-.6h0l-.2-.6-1.5-2.3-.5-1.3v-1l.2-4.1-.5-1.4v-.8c-.1,0,0-1,0-1v-.6s-.3-.5-.3-.5v-1c0,0,0-1.2,0-1.2l-.4-.8v-.3c0,0,.2-.8.2-.8l.4-.4.7-.3h.8c0,0,.9,0,.9,0l.7.4.5.7.5.3h.5l.6-.5.5-1.2h.2c0,0,0-5.1,0-5.1v-4.6h14.7s8.8,0,8.8,0h2.9s11.8,0,11.8,0h2.9s5.9,0,5.9,0h0Z"/>
  <path id="US-CA" d="M121.1,114.7v37l2.2,2,2.2,2,2.2,2,2.2,2,2.2,2,2.2,2,2.2,1.9,2.2,1.9,1.7,1.6,1.7,1.6,1.7,1.6,1.7,1.6,1.7,1.6,1.7,1.6,1.7,1.6,1.7,1.6,2.4,2.3,2.4,2.3,2.4,2.3,2.4,2.3,2.4,2.3,2.4,2.3,2.4,2.3,2.6,2.4v1l.5,1.3,1.5,2.3.2.6h0v.6c0,0,.7.6.7.6l1.4.9.3.4v.3l-.4.4-1.6,1.3-.8,1-.8,1.7v1.3c.1,0,0,1.1,0,1.1l-.2.9-.3.8-.4.7-.5.4h-.5c0,.1-.2,1.1-.2,1.1v1.8c.1,0,.7,1.1.7,1.1l.9.4.6.6.2.8v.8c0,0-.5.8-.5.8l-.6.4h-1.3c0,.1,0,.2,0,.2h-1.1c0,.1-2.7.4-2.7.4l-2.7.2-2.7.2-2.7.2-2.7.2-2.7.2-2.7.2-2.7.2h0c0,0,0-1.3,0-1.3l-.4-.4-.6.3-.3-1.6v-.8c.1,0,0-.7,0-.7l-.5-1.8-1.4-2.2-3-2.7-1.5-.9-1.2-1.2-.8-.3h-1c0,0-.3.4-.3.4l-1.1-.4.2-1.3-1.1-1.8-.9-.2h-2.2c0,.1-2.9-.9-2.9-.9l-.9-.6-.3-1.1-1.4-.9-1.8-.9-1,.2h-1.3c0-.1-1.9-.8-1.9-.8h-1.1c0,0-2.1.1-2.1.1h-.8c0-.1-.7-1-.7-1l-.8-.4.2-1v-.9c0,0,0-.7,0-.7l-.4-1.6.3-1.5-.2-.5-.5-.4-1.4-.6-.3-.8.2-1-.4-.7-1.2-.6-1.1-1.5-1.4-.8-.6-1.3-.8-.8-.3-.7-1.9-2.6-2-2.1-.3-1.2v-1.6c0,0,.7-1,.7-1l.4-.9v-.8s-.2-.6-.2-.6l-.7-1-2.7-.6-2.2-2.5v-2c-.1,0-1-2-1-2v-2.7c-.1,0,.5-.3.5-.3h.6c0,.1,0,.7,0,.7l.2,1,.7.8.7.3.6.7.4.2h.5s-.2-.4-.2-.4l-.3-.3-.3-1-.6-1.2-.7-.7-.3-1.3-.3-.3-.2-.5.7-.6.9-.4h1.2c0-.1,3.5,0,3.5,0l.7-.3h.6c0,.1.5,0,.5,0l-.9-.3h-.5c0,.1-.6,0-.6,0h-1.2c0,0-.5,0-.5,0l-.6-.4h-.4s-1.2.7-1.2.7h-.5c0,0-1.2-.8-1.2-.8h-.5c0-.1-.8.3-.8.3v1.8c0,0,.2,1.4.2,1.4h-.5c0,.1-.6-.4-.6-.4l-.9-.3-.8-.5-1.1-1-.6-.3-.6.8v-.4s.3-.9.3-.9v-1.5c0,0,.9,1.2.9,1.2l-.3-.9-.7-1-.6-.3-.7-1.7-1.6-1-1.3-1.7-2.6-2.8-.2-2.5-1-3.1.4-1.8v-1.3s-.5-1.9-.5-1.9l-.5-1-2.1-2.9-2-1.9-.3-1.5v-1.5c-.1,0,.3-1.3.3-1.3l.4-1.4.3-.4v.2c.1,0,0,.3,0,.3h.3c0,0,.1-.5.1-.5l.2-.3h-.3s0-.2,0-.2l.2-.4.6-1.8v-2.3c0,0,.6-2.8.6-2.8v-.9s-.5-2-.5-2l-.4-1.2-.8-.9.3-1.3v-1.2s-.2-.2-.2-.2h39.8,0ZM122.3,209.1l1.9.6,1-.3.2.3v.2c-.1,0-2.5.4-2.5.4l-.7-.3v-.4c0,0-.3-.4-.3-.4h.3ZM118.3,209.7h-.5s-.8,0-.8,0l.3-.3.4-.2h.1c0,.1.4.5.4.5h0ZM120.7,210.9l-.7.2-.5-.2-.8-1.1h1.7c0-.1.7.3.7.3h0c0,.1-.6.7-.6.7h0ZM136.7,216.9l.5.8h-.7c0,0-.7,0-.7,0l-.2-.5-.2-.6v-.2c-.1,0-.6,0-.6,0h0c0,0,0-.4,0-.4v-.2c.1,0,1.7.7,1.7.7l.4.3h0ZM126.4,218.8h-.4s-.6,0-.6,0l-.3-.6h.5s.4,0,.4,0l.3.5v.2h0ZM136.7,223.2h-.5c0,0-.6-.1-.6-.1l-.5-1.1-.6-.8.3-.2.5.8,1.2,1.2.3.2h0Z"/>
  <path id="US-CO" d="M290.4,139.5v4.6s0,2.3,0,2.3v2.3s0,4.5,0,4.5v2.3s0,4.5,0,4.5v2.2s0,2.2,0,2.2v2.2s0,2.2,0,2.2v2.2s0,4.4,0,4.4h-66.2v-48.3h66.1v3.1s0,9.2,0,9.2h0Z"/>
  <path id="US-CT" d="M574.9,114.5v1.6s0,.7,0,.7v.9s0,2.1,0,2.1v.9s0,.5,0,.5v.8s-.3.3-.3.3v.7c-.1,0-.9,0-.9,0l-1.4.2-1.8.4-1-.2-1,.5h-3.5c0,.1-.7-.1-.7-.1l-.9.8-1.5.5-3.8,1.9-.4.4-.5-.8-.4-.6.8-.5.6-.4.5-.3.4-.2-.3-.5-.3-.5v-1.2c0,0,.2-1.2.2-1.2v-1.2c0,0,.2-1.2.2-1.2v-1.2c0,0,.2-1.2.2-1.2v-1.2c0,0,.2-1.2.2-1.2h.8s.8,0,.8,0h.8s.8,0,.8,0h.8s.8,0,.8,0h.8s.8,0,.8,0v.3h.4s0-.3,0-.3h1.1s1.1,0,1.1,0h1.1s1.1,0,1.1,0h2.2s1.1,0,1.1,0h1.1v.2h0Z"/>
  <path id="US-DC" d="M525.6,153l-.2-.3-.5-.2h-.2c0,0,.8-.9.8-.9l.5.7.5.8-.8,1v-1q0,0,0,0Z"/>
  <path id="US-DE" d="M540.8,141.8l-.4.4-.3.8-.8.9v.6c0,0,.2.4.2.4v.9c0,0,.4.9.4.9l1,1.5.2,2.3.8,1.5,1.2,1.8.9.5v.7s-.4,1.1-.4,1.1l-.6.5h.7c0,0,.4.2.4.2l.3.9v.6h-3.1s-3.2,0-3.2,0v-1.9c0,0-.2-1.9-.2-1.9v-1.9c0,0-.2-1.9-.2-1.9v-1.9c0,0-.2-1.9-.2-1.9v-1.9c0,0-.2-1.9-.2-1.9l.7-1,.3-.3.4-.2h1.2s.8.3.8.3h0Z"/>
  <path id="US-FL" d="M483.5,246.3l.4,1,.7,4,.5,1.4.8,3.8,1.4,3.6,1.9,4.4,3.2,5.3.4.8-.4.6v.7c-.1,0-.2,1-.2,1v1c.1,0,.5,1.2.5,1.2l.7,1.8-.4-.4-1-2.6v-1.5c-.1,0,0-2.2,0-2.2h-.2s-.2.8-.2.8v.8c-.1,0-.4.3-.4.3l-.4-1.3v-.6s.4-.7.4-.7v-.2c-.1,0-.7-.3-.7-.3v-.5c-.1,0,0-.5,0-.5l-.3-.3h-.3l.2,1.3.3.8.4,1.9.6,1.2.3,1,4,10.3.9,1.3.3.9.4,2v2.5c0,0-.6,4.6-.6,4.6l-.2,3.1h0c0,0,0-.4,0-.4h-.2s-.6,1.4-.6,1.4l-.8,1.3-.2,2-.4,1-1.1,1h-.7s-1.7.8-1.7.8l-1.2-.2-1.4.4h-.9s-.5-1-.5-1v-.4c0,0,.3-.4.3-.4h.4c0,0,1.2.9,1.2.9l.2-.4-.4-.5-.7-.3-.5-.3-1.1-2.2-1.1-1.5-.2-1-1.9-.6-1.4-1-.9-1.7-.5-3-.6-.3-.3-.2.6-1.1.6-.9-.5.2-.4.3-.5.8h-.3c0,.1-.3,0-.3,0l-.4-1.6v-2c0,0,.6-.7.6-.7h-.8s-.8.3-.8.3v.7c.1,0,0,.4,0,.4h-.6c0,0-.4-.3-.4-.3l-.6-.7-.8-1.3-1.7-3.6-.3-.5-.6-.5.3-.2h.5c0,0,1.1-1.7,1.1-1.7l.8-1,.3-.7v-.3s-.4-.4-.4-.4l-.5.4h-.2c0-.1-.6-1-.6-1l-.5-.2-.4.2.4.7.3.3v1c-.1,0-.3.3-.3.3l-.3.3-.5-.2-.3.2-.3-.3-.3-.5-.3-.7.9-4.2.8-2.7v-3c0,0,.2-.5.2-.5v-.8c0,0-1.2-1.8-1.2-1.8l-4.9-4.3-3.8-5.1-3.3-1.9-2.5.4-.4.4-.2.5.2.6-.2.2h-.7s-.9,0-.9,0l-2.4,1.3h-.8s-.8.3-.8.3l-.6.3h-1.5c0,.1-1.2.4-1.2.4l-.5-.2-.3-.8v-.8l.3.6.4.5.2-.2v-.4c0,0-.4-.8-.4-.8l-1.4-1.1-1.6-1.6h.5s.1-.3.1-.3l-.5-.4.2-.5.3-.5h-.7c0,0-.6.5-.6.5v.5s-.1.4-.1.4h-.3s-.6-.5-.6-.5l-3-1.3-2.6-.7,2-.3,1.1.2v-.4c-.1,0-.4-.2-.4-.2l-.9-.3h-1.1c0,.1-.7,0-.7,0l-.7.3-.8.5-.7.2-2.7.3-2.2.4.3-.4.4-.2,1.3-.4.2-.8-.3-.7-.3.2-.4.6-.4-.4h-.5v.9c-.1,0-.8.6-.8.6l-.3.6-1.8.5-.2-.2.5-.6v-.3s-.4.2-.4.2v-.4c0,0,.4-.3.4-.3l.2-.4v-.7s.2-1,.2-1v-.3c-.1,0-1.5-1.3-1.5-1.3l-.3-.7v-.8c0,0,0-.8,0-.8h24.3l.4.8.8,1.8v.4s.9,0,.9,0h1.5c0,0,1.5.2,1.5.2h1.5c0,0,1.5.2,1.5.2h1.5c0,0,1.5.2,1.5.2h1.5c0,0,1.5.2,1.5.2h1.5c0,0,1.5.2,1.5.2h1.5c0,0,1.5.2,1.5.2h1.5c0,0,1.5.2,1.5.2h1.5c0,0,1.5.2,1.5.2v.4l.3.6v.6c0,0,.2.3.2.3l.3.2h.5s.5-.3.5-.3l.3-.8v-.9c0,0,0-1,0-1v-.9s.3-.5.3-.5h.3c0-.1.2-.4.2-.4h.2c0,0,.5,0,.5,0l2,.7h1.7c0,0,0,0,0,0ZM451.5,258.1l-1,.4-1-.3h.6s.5,0,.5,0l1.2-.6.6-.4.7-.2-1.6,1ZM495.9,283.3l.2.8-.9-1.8-1.1-2.8-.6-2.2.4.6.4,1.2,1.6,4.2h0ZM478.1,290.9v.6l-.5-1-.3-1.1.5.4.3,1.2h0ZM478.5,291.9l-.3.3-.7-.2-.4-.4-.2-.7.6.7.2.2h.8q0,0,0,0ZM494.1,305.6l-1.9,1.9.2-.5.7-1,.2-.5.5-.3.5-.6v-.7s.7-.5.7-.5h.2c0,0-1.2,2.1-1.2,2.1h0ZM491.7,308h-.2s.4-.4.4-.4h0s-.2.4-.2.4ZM489.9,309.1h-.2v-.2c0,0,.5-.3.5-.3h.1c0,.1,0,.3,0,.3l-.4.2ZM487.9,309.9l-.4.2-.5-.2.5-.2,1.5-.3-.5.3h-.5ZM485.1,310.6l-.3.2h-.1v-.4l-.4-.7v-.2l.9.7v.2s-.1.2-.1.2h0ZM482.9,311.2h-.6c0,0,.5-.3.5-.3l.2-.6.3.5v.3l-.3.2h0ZM480.9,311.7h-.2s0-.1,0-.1l.4-.2h.3v.2s-.4.1-.4.1h0Z"/>
  <path id="US-GA" d="M489.5,232l-.5.9-1.2.6h-.3s-.3.1-.3.1l.2.4.3.3v.3l-.3.4h-.6c0,.1-.3.5-.3.5v.4c.1,0,.3.2.3.2v.4s-.7.4-.7.4l-.2.4h.3c0,.1.3,0,.3,0h.2c0,0-.4.7-.4.7l-.4.4-.3.7-.8.2v.2s.5.2.5.2l.4.5-.7,1h-.5c0,0-.3-.3-.3-.3l-.2.8v.4c0,0,0,.9,0,.9l-.3,1-.2.4v.8s.2.8.2.8h-1.6c0,0-2-.8-2-.8h-.5c0-.1-.2,0-.2,0l-.2.3h-.3c0,.1-.2.6-.2.6v.9s.1,1,.1,1v.9c0,0-.4.8-.4.8l-.5.4h-.5s-.3-.2-.3-.2v-.3c-.1,0-.2-.6-.2-.6l-.2-.6v-.4h-1.5c0,0-1.5-.2-1.5-.2h-1.5c0,0-1.5-.2-1.5-.2h-1.5c0,0-1.5-.2-1.5-.2h-1.5c0,0-1.5-.2-1.5-.2h-1.5c0,0-1.5-.2-1.5-.2h-1.5c0,0-1.5-.2-1.5-.2h-1.5c0,0-1.5-.2-1.5-.2h-1.5c0,0-1.5-.2-1.5-.2h-.9c0,0,0-.5,0-.5l-.8-1.8-.4-.9-.6-1.3-.2-2,.4-3v-.7h-.1l-.5-1.6v-1.1l.6-1.9h0l.3-1.1.4-.6.6-.5v-.4c0,0-.4-.4-.4-.4l-.2-.5v-.5c.1,0-.3-1.3-.3-1.3l-1.3-3.1-.2-1-.2-.7-.2-1.4-.2-1.4-.2-1.4-.2-1.4-.2-1.4-.2-1.4-.2-1.4-.2-1.4-.2-1.5-.2-1.5-.2-1.5-.2-1.5-.2-1.5-.2-1.5-.2-1.5-.2-1.5h3.1s3.1,0,3.1,0h3.1s3.1,0,3.1,0h2.8s2.8,0,2.8,0h2.8s2.8,0,2.8,0h0l-.5.8-1.4,1.5-.4,1.1,1.8,1.2h0l1.1,1,.7.4h.7c0,.1.5.5.5.5l.3.8h0l2.2,4h0l2.2,2,.9,1,.5,1,1.9,1.6.7.8v.6s.3.5.3.5l.4.3.4.6.4.9.8.8,1.1.7.8,1.5.5,2.3.5,1.3.8.6,1.1,2,.4,1.2v1s.5.8.5.8l1.9.9h0ZM484.3,243.7l-.4,2.7-.2-.9v-.9s.3-.5.3-.5l.3-.3Z"/>
  <path id="US-HI" d="M116.1,261.4h-.2s0,0,0,0h.2c0-.1.2,0,.2,0h0c0,.1-.1.2-.1.2h0ZM161.3,277.3l-.8.6-.5-.2h-.9c0,0-.4-.5-.4-.5l-1-.4-.4-.5.6-1,1.4-.8h2.1s.4.7.4.7v.5s-.2.5-.2.5v.8c-.1,0-.4.4-.4.4h0ZM153.7,278.2l-.2.5h-.3c0,0,0-.5,0-.5l.2-.5.5-.5.6-.7h.5c0,.1-.3.6-.3.6v.5s-.7.3-.7.3l-.3.4ZM176.1,282.1h.3c0,0,.4,0,.4,0v.8c.1,0,.6.4.6.4l.2.3-.5.3h-1c0,.1-.5-.1-.5-.1l-.5-.5h-.5c0,.1,0-.3,0-.3h-.1c0-.1-.4,0-.4,0l.3.5h-.9s-.3,0-.3,0l-.3-.6-.9-1.1v-.4l-.3-.5,1.4-.2,1-.9h.5c0,0,1,1.4,1,1.4v.4s.2.4.2.4h.3q0,.1,0,.1ZM181.6,284.5l2,.3h.5c0-.1.3,0,.3,0h1.6c0,.1.3.2.3.2l-.3.5-1.1.5-1.5-.4-2.5-.2v-.4c.1,0,.3-.3.3-.3v-.5s.4.2.4.2h0ZM188.4,287.4l.2.2,1-.3h.7c0,0,1.2.6,1.2.6l.4.5.8.5.3.3-.2.4-.9.7-1.2.2-.7.3h-.9c0,0-.3-.2-.3-.2v-.9c-.1,0-.4-1-.4-1h-.6c0,.1-.7-.2-.7-.2l-.7-.8v-.5c0,0,.3-.8.3-.8h.7c0,0,.5.3.5.3l.4.6h0ZM185,289l-.6.3h-.6c0-.1-.1-.8-.1-.8l-.6-.9,1-.2.6.2.3.3.4.5-.4.6h0ZM197,306.5l-.4.5h-.5s-1.9-1.1-1.9-1.1l-.2-.5v-2.5c.1,0-.6-2.1-.6-2.1l-.8-1.6.6-.8.8-.6.8-1.2-.7-1.5.2-.9.4-.2,2,1.1,4,1.7,1.1,1.2.2,1.3.7.2.3.9,1.1.8.4.4-.4.7-1.9,1.3-2.4.6-2.1,1.5-.4,1h0Z"/>
  <path id="US-IA" d="M397.4,108.2l.6.9,1,.8.6.7v.7c.1,0,.7.7.7.7l1.1.8.6.7.2.6v.9s-.3,1.2-.3,1.2l-.4.9-.5.5-.4.8-.3,1-.8.9-1.4.8-1.6.6-1.7.3-1,.7-.3,1.1v.9c.1,0,.8.8.8.8l.3.8v.8c0,0-.3,1.4-.3,1.4l-1,1.9-1.1,1.2-1.2.6-.5.8v1.1c.1,0,0,.6,0,.6l-.5.2-.8-.7-.2-.5-.7-.5v-.3c0,0-.6-.3-.6-.3l-.5-.9h-2.4s-2.4,0-2.4,0h-2.4s-2.4,0-2.4,0h-2.4s-2.4,0-2.4,0h-2.4s-2.4,0-2.4,0h-2.4s-2.4,0-2.4,0h-4.8s-2.4,0-2.4,0h-2.4s-2.4,0-2.4,0h-2.3l-.6-.9-.3-.8.2-.4v-1.4s0-2.4,0-2.4l-.2-1.3-.3-.3v-.4s.2-.5.2-.5v-.4c0,0-.5-.2-.5-.2v-.5c-.1,0,0-.7,0-.7v-.4c0,0-.5-.2-.5-.2v-.2c-.1,0,0-.3,0-.3l-.2-.2h-.4c0,0-.2-.9-.2-.9v-1.5c0,0,0-1.1,0-1.1l-.4-.7-.2-.6v-.6l-.4-.9-.9-1.2-.6-1.6-.3-2-.6-1.1h-.3c0,0-.2-1.1-.2-1.1l-.2-.5v-.4s-.8-.9-.8-.9v-.3s0-.4,0-.4l.5-.9.5-1.4v-1c0,0,.5-.7.5-.7v-.9c0,0-.3-.5-.3-.5l-.6-.3v-.2c0,0-.1-.5-.1-.5l.2-.3v-.4c0,0,0-.5,0-.5l-.4-.8-.2-.8h1.4s15.3,0,15.3,0h3.1s30.7,0,30.7,0v.8c0,0,.2.6.2.6l.4.5.6.3v.7c0,0-.3,1-.3,1v1.2c-.1,0,0,1.5,0,1.5l.3,1.3.5,1.2,1,.9,1.6.6,1,.8.3,1.2h0c0,0,0,0,0,0Z"/>
  <path id="US-ID" d="M205.4,82.5v6.1s0,26,0,26h-52.7s-3.5,0-3.5,0v-8.5s0-2.8,0-2.8v-2.9s0-5.8,0-5.8v-3.2s0,0,0,0l.6-2v-1c.1,0,0-.5,0-.5v-.5c0,0,.5-.5.5-.5v-.6l-.4-.6-.7-.4-1-.2-.5-.7v-1.2s.7-1.9.7-1.9l1.6-2.5.9-1.8.2-1.1,1-2.4,1.8-3.8.7-2.5-.4-1.1-.9-1-1.4-1-1-1.2-.3-.6-.3-.7-.2-.9.2-.5-.2-.9-.6-1.3-.3-.9v-.3c0,0,.1-.1.1-.1v-4.4s0-2.2,0-2.2v-2.2s0-2.2,0-2.2v-2.2s0-4.5,0-4.5v-2.2s0-2.2,0-2.2v-2.3s0-2.3,0-2.3v-2.3s0-2.3,0-2.3v-2.3s0-2.3,0-2.3h9.3v14l1,1.4.8.9.5.9.7,1v.4c.1,0,.4,1,.4,1l-.2.8.4.8v.4c0,0-.4.2-.4.2h0c0,.1.1.3.1.3l1,.7,1,1,1.3.7.4.4,1.7,2,.9,1.3.9.9.5,1.1,1,.9.2.5h0c0,.1.1.1.1.1l.6-.2h.2c0,0,.3.4.3.4v.6c0,0,.3.2.3.2h.4c0,.1.4.2.4.2l1.3-.3h.4c0,.1,0,.4,0,.4v.5s-.2.7-.2.7l-.4.7v.6c0,0-.2,1.5-.2,1.5l-.3,1v1s-.4.6-.4.6l.2.7v1c-.1,0,0,.3,0,.3l.5.5.2,1.2v.2c0,0-.9.5-.9.5l-.3.3v.5c-.1,0,.2,1.3.2,1.3l-.3.7v.6s0,.2,0,.2l.8.3.9.7.3.2h.2s.4-.3.4-.3l.4-.5.9-.5,1-1.1v-.3s.1-.2.1-.2h.5c0,.1.7.8.7.8l.6.4h0c0,0,0,.3,0,.3v.6s.3.5.3.5v.8c0,0,.4.8.4.8l.2,1,.8,1.3.5.9.5.4.3.5.2.6v.5c0,0-.2.9-.2.9v.4c0,0,.4.4.4.4l.9.9h.2c0,0,.8,0,.8,0h.4c0,.1.4.6.4.6l.4.7.3.7v.8c0,0,.5.9.5.9v.8c0,0,.3.3.3.3l.6.5.5.3h.2s.2-.1.2-.1v-.4s.3-.3.3-.3l.7-.5h.6l2.4.4h.2s.1-.1.1-.1l.4-.7.3-.3h.5c0,0,1.5,0,1.5,0h1.7c0-.1.9.1.9.1l1.3-.3,1.5.2h.2c0-.1,0-.3,0-.3v-.3c-.1,0-.2-.5-.2-.5l.3-.6v-.5c0,0,.4-.3.4-.3l.4-.2h.3s.3.3.3.3l.4.5.6,1.3.3.5.4.4.6.4h0Z"/>
  <path id="US-IL" d="M424.2,108.4v3.6c.1,0,.4.7.4.7l.3.5.3.3.4,1.1.5,1.8.4,1.2.3.5v3.3s0,3.7,0,3.7v3.7s0,3.7,0,3.7v7.4s0,3.7,0,3.7v3.4h0c0,0-.4.4-.4.4l-.3.6v.7c0,0,0,.5,0,.5l-.3.3.2.8.6,1.2.4,1.2v1.2c.1,0,0,.8,0,.8l-.5.8-.5,1.6-.4.7-.5.2-.5.6-.4,1-.4.5h-.5s-.3.2-.3.2l-.2.4v.4s.3.4.3.4v.4c0,0-.5.4-.5.4v.2h.2c0,.1,0,.3,0,.3l-.3.2-.2.5v.9s-.1.5-.1.5h-.3s0,.3,0,.3l.5,1-.3.2-.5.8v.9c-.1,0,.2,1,.2,1l-.8.8-1.9.6-1,.6v.5c-.1,0,0,.7,0,.7l.4,1v.7c0,0-.2.4-.2.4l-1.3-.3-2.4-.9h-1.6s-.8,1-.8,1l-.3.7v.6c0,0-.6-.7-.6-.7l-.5-.3h0s0,.1,0,.1v.2s0,.2,0,.2v.2c0,0,0,.1,0,.1h-.1l-.5-.3-.6-.8-.7-1.3-.2-1,.4-.8v-.8l-.4-.8-.2-.8v-.8l-.9-1.2-1.9-1.6-1.4-1-.9-.4-1-.8-1.2-1.2-.6-1v-.7c0,0,.5-1.8.5-1.8l1.6-3.9.2-.5v-.2s0-.2,0-.2l-.2-.2-.7-.5-1.3-.4-1.2-.2-.9.5-.8-.9-.7-2.3-1.7-2.5-2.7-2.6-1.6-1.8-.4-.9-.4-1.4-.3-1.9v-1.6l.6-1.9.5-.2v-.6c0,0,0-1.1,0-1.1l.5-.8,1.2-.6,1.1-1.2,1-1.9.4-1.4v-.8c0,0-.4-.8-.4-.8l-.6-.8v-.9c-.1,0,.2-1.1.2-1.1l1-.7,1.7-.3,1.6-.6,1.4-.8.8-.9.3-1,.4-.8.5-.5.4-.9.2-1.2v-.9s-.1-.6-.1-.6l-.6-.7-1.1-.8-.6-.7v-.7c-.1,0-.7-.7-.7-.7l-1-.8-.6-.9h4.3s4.2,0,4.2,0h4.2s4.2,0,4.2,0h4.2s4.2,0,4.2,0h1.2Z"/>
  <path id="US-IN" d="M452.5,118.4v4.1s0,4.1,0,4.1v4s0,4,0,4v4s0,4,0,4v4s0,4,0,4h-.2c0,.1-.2.6-.2.6l.2.5v.4l-.3.3v.2c0,0,.5.2.5.2l.2.4v.6c0,0-1,.6-1,.6l-1.8.7-.4.2h-.3c0,0-.2,0-.2,0h-.2c0-.1-.3-.4-.3-.4h-.6c0-.1-.9,0-.9,0l-.4.6.2,1-.3.8-.8.5-.6.7-.3.9-.6.5-.8.2-.6.8-.5,1.5-.5.9-.6.4h-.8c0,0-1-.6-1-.6l-.6-.5-.2-.6-.3-.4-.3-.2h-.2c0,0,0,.2,0,.2v.2c0,0-.7,0-.7,0l-.3.2v.4c0,0,0,.3,0,.3l-.3.2-.2.4v.6s-.3.6-.3.6l-.5.5-.7-.2-.9-.8-.9-.2-1,.5-.7.6-.5.8-.4.2-.7-.6-1.5-.8-.8-.2-.6.2h-.4c0,0-.1-.3-.1-.3h-.1c0,0-.1,0-.1,0v.7l-.2.4-.3.2-.2-.2v-.5c-.1,0-.5-.2-.5-.2l-.5.2h-.5c0,0-.5-.4-.5-.4h-.2s-.1.2-.1.2v.5s0,.4,0,.4l-.2.3h-.3c0,0-.5,0-.5,0h-.2c0,.1-.5-.9-.5-.9v-.2s.3,0,.3,0l.2-.5v-.9s.1-.5.1-.5l.3-.2v-.2s0-.1,0-.1v-.2l.4-.4v-.4c0,0-.2-.4-.2-.4v-.4s.2-.4.2-.4l.3-.2h.5s.4-.4.4-.4l.4-1,.5-.6.5-.2.4-.7.5-1.6.5-.8v-.8c.1,0,0-1.2,0-1.2l-.4-1.2-.6-1.2-.2-.8.3-.3v-.5c.1,0,0-.7,0-.7l.3-.6.4-.4v-7.2s0-3.7,0-3.7v-3.7s0-3.7,0-3.7v-7.5s0-3.3,0-3.3h0c0,0,.3.4.3.4l.3.2h.2s.1.3.1.3l.5.2h1c0,0,.9,0,.9,0l.8-.3,2-1.1h10.9s8.6,0,8.6,0v.7h0Z"/>
  <path id="US-KS" d="M360.1,175.5h-69.6v-4.4s0-2.2,0-2.2v-2.2s0-4.5,0-4.5v-2.2s0-2.2,0-2.2v-2.2s0-2.3,0-2.3v-2.3s0-4.5,0-4.5v-2.3s0-4.6,0-4.6h62.9l2.2,1.6h.6s.7-.2.7-.2l.5.4.3,1v.5s-.5,0-.5,0l-.6.6-.7,1.1.2,1.1,1,1,.7,1,.3,1,.7.8,1.5.8v.5s0,3.1,0,3.1v1.6s0,3.1,0,3.1v1.5s0,1.6,0,1.6v1.5s0,3.1,0,3.1v1.5s0,1.5,0,1.5v1.5s0,3.1,0,3.1v1.5h0Z"/>
  <path id="US-KY" d="M473.1,158.3l.2.3v1.8c0,0,0,.3,0,.3l-.3.7v.4s.3.6.3.6l1,1.4v.5c0,0,.5.5.5.5l.3.8,1.1,1.7,1.7,1.4,1.3.4-3.6,2.9-1.6,1-1.5.8h-.1c0,.1-.3,1.1-.3,1.1l-.9.8-.6.8-1.4.7-1,1-2.5,1-1.4.3-1,.6h0s0,0,0,0h0s0,0,0,0h0s0,0,0,0h0s0,0,0,0h-3.3c0-.1-3.3-.2-3.3-.2h-3.3c0-.1-3.3-.2-3.3-.2h-3.3c0-.1-3.3-.2-3.3-.2h-3.3c0-.1-3.3-.2-3.3-.2h-3.1c0,0-3.1.1-3.1.1h-3.1c0,0-3.1.1-3.1.1l-.3-.4h-.8c0,0-1.3-.2-1.3-.2h0l.4,1.2v1h0s-13.1,0-13.1,0l.5-1,.4-.3h.2s.5.1.5.1h.2c0,0,.5-.3.5-.3l.4-1,.2-1.1v-1.2c0,0-.2-.9-.2-.9v-.6c0,0,.2-.7.2-.7l.8-1h1.6s2.4.9,2.4.9l1.3.3.2-.4v-.7c0,0-.4-1-.4-1v-.7c-.1,0,0-.5,0-.5l1-.5,1.9-.6.8-.8-.3-1v-.9c.1,0,.6-.8.6-.8l.3-.2h.2c0-.1.4,0,.4,0h.3c0,0,.2-.4.2-.4v-.4c0,0,0-.6,0-.6h.1c0-.1.2-.2.2-.2l.5.3h.5c0,0,.5,0,.5,0l.3.2v.5c.1,0,.3.2.3.2l.3-.2v-.5c.1,0,.1-.7.1-.7h.1c0-.1.1,0,.1,0v.2c.1,0,.5,0,.5,0l.6-.2.8.2,1.5.8.6.6.5-.2.5-.8.7-.6.9-.5.9.2.9.8.7.2.5-.5.2-.5v-.6s.2-.4.2-.4l.3-.2v-.3c.1,0,0-.4,0-.4l.3-.2h.6c0,0,0-.2,0-.2v-.2c0,0,0,0,0,0h.2l.3.2.3.4.2.6.6.5,1,.5h.8c0,0,.6-.3.6-.3l.5-.9.5-1.5.6-.8.8-.2.6-.5.3-.9.6-.7.8-.5.3-.8-.2-1,.4-.6h.9c0,0,.6,0,.6,0l.3.3h.2c0,.1.2.2.2.2h.3c0,0,.4-.3.4-.3l1.8-.7,1-.6v-.6c0,0,0-.4,0-.4l-.4-.2v-.2c0,0,.2-.3.2-.3v-.4l-.2-.5.2-.5h.2c0-.1.5-.5.5-.5h.5s.4.4.4.4h.6c0,0,.8-.1.8-.1h.7c0,.1.7.6.7.6l.6.9.6,1.3,1.1.8,1.5.3,1.1.5.7.7.6.2.7-.4.7-.2.7.2,1,.6h1.5c0-.1,1.9-1,1.9-1h1.1s.3,1,.3,1l.8,1,1.3,1.1h0s0,0,0,0ZM408.4,181.3h-.7s0-.1,0-.1v-.3s0-.1,0-.1h.1s.2,0,.2,0l.2.3v.3h.1Z"/>
  <path id="US-LA" d="M408.1,252.1l-.6.3-3.4-1.1-.9-.9-.8-.2h-.9c0-.1-1,1-1,1l-.8,1.5,1.2.8,1,.4,1.7-.3.9-.7h.8s.4-.1.4-.1l.3-.4.7.3v.3s-.4.4-.4.4l-.6.3-.4.4.7.8,1.1.3h.4c0-.1.2-1.1.2-1.1l.7-.6h.9c0,.1-.1.5-.1.5v.4c.1,0,.5.6.5.6v.9s0,.2,0,.2l-1,.4h-.7c0,.1-.6.6-.6.6l.3.3-.6.3h-.4c0,0-.2,0-.2,0v.3c0,0-.4.3-.4.3l.4.9.9.6.6.7,2.5.9h.6s.6.9.6.9l.5.3.5.2v.7s-.9.5-.9.5l-.2.6-.2.3-.4-.4-.4-.3-.9.9-.4.2.2-1-.3-.4-.5-1-.7-.6-.5-.2-.4-.4-.5-.2h-.4s-.7-.2-.7-.2v-.5s-.2-.4-.2-.4l-.5-.5-2.7-.8v.3s.2.3.2.3l.4.2.5.3v1l-.2.4v.6c0,0-.2.6-.2.6l-.3.5-.7.3-.3-.3-.5-1.3-.7-.4h-1.2s-.8.2-.8.2l-.9,1.3-.7.2-2.4-.7-2.7-1v-.3c0,0,.5-.1.5-.1h.8c0,.1,0-.2,0-.2l-.8-1.2-.2-.5v-.6c.1,0-.2,0-.2,0l-.5.5-1.7-.5-.5-.5-1-1.5h-1.4s-.7-1-.7-1l-1.2.4-.6.4-.5.7.2.3.5.5-.2.3-1.7.4-3.9-.4-1.1-.4-1.5-.9-2.1-.7h-1c0-.1-1,0-1,0h-2.9c0,0-.7.3-.7.3l-.6.3-.4-.3-.2-.6h.3c0,0,.4-.4.4-.4l.3-.7v-.4s-.2-.3-.2-.3l.6-1.1.2-.4v-1.8c0,0-.4-.7-.4-.7v-.4s.3-1,.3-1v-.9s.5-1.1.5-1.1l.4-.6.4-1.2v-.8c0,0,.3-.6.3-.6v-.6c-.1,0,.2-.5.2-.5l-.2-.6v-.8c0,0-.4-.3-.4-.3l-.7-1.2v-.5s-.7-1.2-.7-1.2v-.4l-.7-.6v-.4c-.1,0-.2-1.6-.2-1.6l-.2-.5-.6-.9-1.3-1.3v-11.2h27.2v.5s.5.3.5.3v.6s-.4.8-.4.8v.6l.4.3v.3s-.5.4-.5.4v.4c0,0,.2.4.2.4v.5c.1,0,.1.6.1.6l.4.7.7.5.4.6v.3s0,.3,0,.3v.4c0,0-.6.6-.6.6l-.4.4-.2.2v.3c-.1,0-.2.6-.2.6l-.6.8-1.2,1-.8,1.2-.4,1.5-.4.9-.4.4-.2.8v1.1l-.3.6h-.6c0,.1-.1.8-.1.8l.3,1.2v.5c-.1,0-.5.4-.5.4v.3s2.2,0,2.2,0h2.3s13.6,0,13.6,0l-.3,1.3-.7,1.7v.4s.1.5.1.5v.3l.2.5.5.5.5.7.4,1.2v.6c.1,0,.5.8.5.8l.2.2h.3c0,0,.3.1.3.1h0ZM410.9,253.3v.5s-.4-.2-.4-.2h-.7s.3-.2.3-.2l.2-.2v-.2c.1,0,1-.6,1-.6l-.2.5v.5h-.1ZM414.6,256.3l-.3.3.3-1.7-.4-1.4.4.6v.7c.1,0,0,1.4,0,1.4h0ZM414,257.3l-.5.6v-.2s.4-.6.4-.6l.3-.2-.2.4h0ZM386.7,259.6l-.3.2-1.6-.9v-.4c0,0,.7-.4.7-.4h.5s.7.5.7.5h.3c0,.1.1.3.1.3v.3c0,0-.4.4-.4.4h0Z"/>
  <path id="US-MA" d="M584.2,103.5l-.2.7.3.7.2.7.4.7h.4c0,0,.4,0,.4,0h.3s.2.3.2.3v.3c0,0-.5,0-.5,0l-.8.6-.8.2-.4.7-.6.8-1.1,1.3.5.4,1.7.4.8.5,1.1,2.4-.3.2v.4c0,0,.9.6.9.6l.3,1.7.8.6,1.2.4,1.5-.5,1.3-.7v-.6s-.8-1.3-.8-1.3l-.2-.6-.6-.4-.2.3-.4-.5v-.3s.3-.1.3-.1h.4s.5.3.5.3l1.2,1.5.3,1.9v1.2c0,0,0,.4,0,.4h-.4c0,0-.7,0-.7,0l-3.2.6-.7.6-1.7.6v-.3c0,0,0-.6,0-.6v-1.3c0,0-.4,0-.4,0l-2.6,2.1h-1c0,.1-.8.7-.8.7l-.2-.3-.2-1.6.5-1.3h-.3s-.5.5-.5.5l-.3-.6-.3-.3-.3-.3v-1.2s-.4-.1-.4-.1v-.9s0-.6,0-.6h-1.3s-.9,0-.9,0h-1.7s0-.1,0-.1h-1.1s-1.1,0-1.1,0h-1.1s-1.1,0-1.1,0h-1.1s-1.1,0-1.1,0h-1.1s-1.1,0-1.1,0v.3s-.5,0-.5,0v-.3h-.8s-.8,0-.8,0h-.8s-.8,0-.8,0h-.8s-.8,0-.8,0h-.8s-.8,0-.8,0l-.2-.3.3-1.1.3-1.1.3-1.1.3-1.1.3-1.1.3-1.1.3-1.1.3-1.1h.9s.9,0,.9,0h.9s.9,0,.9,0h.9s.9,0,.9,0h.9s.9,0,.9,0h1.3s1.3,0,1.3,0h1.3s1.3,0,1.3,0h1.3s1.3,0,1.3,0h1.3s1.3,0,1.3,0l.8-.3,1-1,.6-.2,1-.6h.5c0-.1,1.1,0,1.1,0h0ZM587,122.5l-2.6.6-.4-.4.7-.2.8-.9h.5c0-.1.8.4.8.4v.5ZM592,123.9l-.7.2-1.7-.5,1.4-.4h.2c0-.1.2-.7.2-.7v-.3s.5,1.2.5,1.2v.4h0,0Z"/>
  <path id="US-MD" d="M537.4,142.9v1.9c0,0,.2,1.9.2,1.9v1.9c0,0,.2,1.9.2,1.9v1.9c0,0,.2,1.9.2,1.9v1.9c0,0,.2,1.9.2,1.9h6.3v.3s-.1.5-.1.5l-.2.2v-.7c-.1,0-.4.2-.4.2l-.2.3v1c0,0-.2.5-.2.5l-.6.2-.6,1.3-.6.8-.2.5h-.9c0,.1-1.4.3-1.4.3l-.4.5-.7-.2h-1.1s.2-.7.2-.7l.3-.6-.6-.6h-.3c0,0-.3-.3-.3-.3l.4-.5.2-.6v-.7c-.1,0,0-.5,0-.5h-.3c0,0-.5.6-.5.6l-.3.2-.2-.5h-.2c0,.1-.1.4-.1.4l-.3.2-.6-.5-.9-.5-.5-.9-.3-.7.3-1.3.6-.2.8.2h1l-.2-.3h-.4s-1.1-1-1.1-1l-.4-.6-.6-.2-.3.6-.3.2.4-1.3h.5s.7-.4.7-.4l-.2-.8-.5-.3-.8.4v-.5l.2-.7h.6l.6.2.5-1.1v-.5s-.8.7-.8.7l-.2-1.5.8-1.5.7-.7h.9s.9,0,.9,0l-.6-.3-.6-.2.5-.6h.4c0-.1.4-.6.4-.6h-.9c0,0,.1-.9.1-.9l-.5.2h-.5c0,0-.2.5-.2.5v.7s-.1.5-.1.5l-.4.4-.7.3v-.5c0,0-.3-.2-.3-.2v1c0,0-.3.4-.3.4l-.5-1-.2.2v.3s-.1.5-.1.5l-.4.2v.6s-.1.3-.1.3l-1.4-.5v.2s.8,1.2.8,1.2l.6.4v.6c0,0-.4.5-.4.5l-.7-.5h-.1s.4.8.4.8l.2.7-.2.6v.7s0,.6,0,.6l-.2.5.3,2.5.4.7.4.7.2.6h-.4c0,0-.7-.4-.7-.4l-.6-.4-.7-1.2v-.5c-.1,0-.3-.4-.3-.4v.9c0,0,.3,1,.3,1l2.2,2.2.4.8.3.7v.6c0,0-.7-.5-.7-.5l-.5-.6-1.3-.7-1.7-.4-.9-1.5v.6l-.2.5-.6-.7-.4-.6v-.6c-.1,0-.8,0-.8,0l-.8.5h-.7c0-.1,0-1.2,0-1.2l.2-.5.8-1.3.8-.7.3-.9v-1.3c-.1,0,0,1,0,1l.8-1-.5-.8-.5-.7-.8.8-.6-.3-1-1-1.7-.7-.2-.4v-.4s.3-.5.3-.5l-.5-.5-1.3-.5-.5-.5h-.1c0,0,0-.6,0-.6l-.2-.3-.3-.2v-.2s.1-.3.1-.3l-.2-.3-.5-.4-.2-.3.2-.3h-.3c0-.1-.7-.1-.7-.1l-.7-.3-.7-.6h-.8c0,0-1.4.5-1.4.5h-.8c0,.1-.3.5-.3.5l-.2.5-.3.3h-.9s-.8-.2-.8-.2l-.6-.3h-.1c0-.1,0-.4,0-.4h-.1c0-.1-.2-.2-.2-.2l-.2.2-.2.5-1.5,1.4-.7-.3h-.3l-2,2-.6.3-1.2.9v-1.5s0-1.5,0-1.5v-1.6s0-1.6,0-1.6h34.8c0,0,0,0,0,0ZM542.6,163.2h-.2s.2-.4.2-.4l.8-2,.4-.7-.4,1.4-.6,1.3-.2.4h0Z"/>
  <path id="US-ME" d="M600.7,44.8v.3c0,0,.5.5.5.5l.6.4h.5c0,.1.6.1.6.1l1.5-.7,1.8-.5,1-.4.2-.4h.4c0-.1.7,0,.7,0l1.3,1,1.5,1.5,1.2,1.2v2s0,2.1,0,2.1v2.2s0,1.6,0,1.6v2.2s0,1.7,0,1.7v2.3s0,1.2,0,1.2l.2.4v.5c0,0-.1.2-.1.2v.4c0,0,0,.3,0,.3l-.2.3v.4c0,0,0,.6,0,.6l.2.4.3.2h.2l.3.2.4.4.6.3h.6c0,.1.4,0,.4,0l.5.2.2.5v.5c0,0-.4.2-.4.2l-.3.2v.4c0,0,0,.4,0,.4l.2.3.2.6v.5c0,0-.3.4-.3.4v.4c0,0,0,.4,0,.4l.5.5.3.5.5.3.2-.2.2-.2.2-.2h.3c0,.1.4.2.4.2l.4.2v.4c0,0,.2.7.2.7l.2,1.3-.3.6v.8c0,0,.9.2.9.2l.2.2v.3s-1.9,2-1.9,2l-1.6-.3-.9.5-.9.2-.4.9-.5.2h-.7s-.6-.3-.6-.3h-.5c0,.1-.6,1.7-.6,1.7h-.5c0-.1-.2.4-.2.4l-.3.2-.4.2-.3-.7-.2-.7h-.3c0-.1-.4-.3-.4-.3h-.8c0,.1-.4.5-.4.5l-.5.4-.4-.3-.3-.5-.3.8-.4.9v1c0,0-.1.6-.1.6l-.4-.2-.4-.5-1.1-.4h-.8s.2-.5.2-.5l.8-.8-.2-.2h-.4c0,.1-.2,0-.2,0l.3-.7v-.8s-.3.3-.3.3l-.4.9-1.1.7v1.1c0,0-1,2.3-1,2.3v1c0,0-.7.8-.7.8l-.8.7-1.1-.2-.8.6-.4.7h-.4c0,0-.2-.8-.2-.8v-.3c-.1,0-.5,1.2-.5,1.2h-.3c0,0-.1-.8-.1-.8l-.2-.6-.4.5-.3,1.3h-.3c0-.1,0-.6,0-.6l-.2-.2v.6c0,0,0,.8,0,.8l-.2.4-.3-.2-.3-.4-.5.3h-.5c0,.1,0-.3,0-.3v-.5c0,0-.8.3-.8.3l-1.1.9-.8,1.2.3.2.3.4-1.5,1.9-1.5,1.7-1.2,2.8-.5.3-.4.5-.8-1.2-.2-1-.8-1.2-.3-.8v-.9c-.1,0,0-1,0-1v-1.4c0,0-.1-1.4-.1-1.4v-1.4c0,0-.1-1.4-.1-1.4v-1.5c0,0-.1-1.5-.1-1.5v-1.5c0,0-.1-1.5-.1-1.5v-1.5c0,0-.1-1.5-.1-1.5v-1.5c0,0-.1-1.5-.1-1.5v-1.5c0,0-.1-1.5-.1-1.5v-1.5c0,0-.1-1.3-.1-1.3l.2-.2.6-.4h.4s.3.6.3.6l.3.4h.3c0-.1.3-.6.3-.6v-.7l.3-.5h.4c0,0,.4,0,.4,0l.2-.2v-.4s-.2-.6-.2-.6v-.7s1-1.2,1-1.2l1.2-.8.4-.4v-.9c.1,0,.8-.9.8-.9l.3-.5v-.5c0,0,0-.5,0-.5v-1s.3-1.2.3-1.2l.3-1.4.7-1.2,1.1-1.4.3-1.8.3-1.9,1.3-1.8,1.5-2.1.8-1.2,1.5-2.2,1.1-1.5.5-.7.6-.9.9.2.9.2v1.2c-.1,0-.1.6-.1.6h0ZM608.9,84.7l-.6.3h-.6c0-.1,0,.6,0,.6v.2c0,0-.7-.4-.7-.4l-.2-.2v-.9s.6-.9.6-.9l.4-.3.6.2.4,1v.4h0ZM604.8,86.5l-.4.3h-.4v-.9c.1,0,.2-.1.2-.1l.2.2.3.6Z"/>
  <path id="US-MI" d="M413.4,36v.2s.3,0,.3,0h0c0,.1-.4.3-.4.3l-1,.4h-.7c0,.1-.4,0-.4,0v-.3s.2-.4.2-.4v-.2h-.3v-.2c0,0,.5-.3.5-.3l3.7-2.1,1.6-.8.8-.2h.1c0,.1-.9.9-.9.9l-.2.3v.2s-.3.4-.3.4l-2.7,1.5h-.4q0,.1,0,.1ZM420.3,45.9l-.2.5v.3s-1.1,1.2-1.1,1.2l-.4.8h-.3c0,.1-.3-.4-.3-.4v-.4l.3-.3.3-.4v-.6s0-.2,0-.2l-.3.5h.2c0,.1,0,.2,0,.2v.2c0,0-1.4-.3-1.4-.3l-.4-.4v-.6c0,0,.5-.8.5-.8l1.6-1.6.7-.5,2-.7,1.1-.2h1.1l.8.2.5.5-.5.3-2.2.3h0c0,0,.4.3.4.3v.2c0,0-.3.5-.3.5l-1.9,1.5h0ZM456.7,55.6l.3.2.2.3.5.8.2.6.2.8v.3c0,0,0,.5,0,.5l-.3.3v.3c0,0,.1.3.1.3h1.1c0,0,.5.3.5.3l.2.3v.3c-.1,0,0,.3,0,.3l.3.4.9.5.2.3v.3c0,0-.3.2-.3.2h-.5c0,0-3.4-.4-3.4-.4h-1c0,0-.2.1-.2.1h0s-.2,0-.2,0h-.4c0-.1-.1-.5-.1-.5l-.3-.2h-.5c0-.1-.4.2-.4.2l-.5,1v.2c0,0,0,.7,0,.7v.2c.1,0,.1.1.1.1h-.1c0,.1-.3.1-.3.1l-.4-.2-1.6-1.5-1.2-.8-1.5-.6-1.2-.3h-.9l-.7.4-.6.8-.9.4h-1.2c0,.1-.7.3-.7.3v.3h-.5l-.8-.3h-.8c0,0-.8,0-.8,0l-.6.3-.6,1v.5c-.1,0-.6.4-.6.4l-1.2.6v.2c0,0-.7.7-.7.7l-.2.4v.4h-.2s-.4-.5-.4-.5v-.6s.4-.8.4-.8l.3-.4h.3s.2-.3.2-.3v-.7c0,0,0-.3,0-.3h-.6c0,.1-.3.4-.3.4h-.4c0,0-.5-.1-.5-.1l-.4.4-.4.9-.4.6-.5.3-.3-.3-.2-.9v-.7l.2-.9v-.2c-.1,0-.3.3-.3.3l-.3.7-.4,1.5-.3.5-.4.2-.6.9-.8,1.6-.9,1.6-1,1.5-.6.8h-.2c0,.1,0,.4,0,.4v.6s-.5-.2-.5-.2l-.4-.5-.2-.5v-.5s.5-1.4.5-1.4v-.2s0-.1,0-.1h-.3c0-.1-.7.1-.7.1h-.7s-.2,0-.2,0v-.2c0,0,0-.4,0-.4l.2-.4.4-.8v-.8l.2-.4-.2-.8v-.4s-.2-.4-.2-.4l-.8-.6-1.8-.8.2-.8v-.4c0,0-.5-.5-.5-.5l-1.9-.6-1.3-.3h-1.3l-.9-.2h-1c0,0-.7-.5-.7-.5l-.7-.4-.7-.4-.7-.4-1.2-.3-1.2-.3-1.2-.3-1.2-.3-1.2-.3-1.2-.3-1.2-.3-1.2-.3-.3-.6-.3-.6-.3-.6-.3-.6-.5-.2h-.3c0-.1-.2-.4-.2-.4h-.5c0,.1-.2-.4-.2-.4h0c0-.1.6-.2.6-.2l1.8-.7,1.5-.9,1.2-1,1.6-.6,1.9-.2,1.3-.4.8-.5,1.1-1,.6-.3h.8c0,0,.6-.5.6-.5l.4-.7.7-.8,1.1-.9.6-.3.2.2v.3c0,0,0,.4,0,.4l.3.4.6.3.3.4v.5s.1.4.1.4l.4.3v.7c0,0,0,1,0,1v.7s.1.3.1.3v.2c.1,0,.3-.2.3-.2l.3-.4v-.2c0,0,.2-.2.2-.2l1.6-1.1h.3s.5.2.5.2l2.4.4.9.3,1,.6.3.2,1.2,2,.5.8.3.2.2.3.2.7.2.2h1.8c0,.1.8,0,.8,0l.5-.3.5.2.6.6.6.2.6-.3h.5l.5.3.2.2h.2l1-1,1.2-.9,1.6-.9.9-.4h.3c0,.1,1.5-.2,1.5-.2h1.3s1.8.2,1.8.2l1.6-.2,1.5-.6,1.3-.4h1.2c0,0,.4.1.4.1l-.3.4-.2.7v1s-.1.6-.1.6l-.2.3v.3s.1.2.1.2l1.1.2.6.3h.7l.8-.3h.6c0,.1.4.6.4.6h.6c0,.1.6-.3.6-.3l.4-.4.3-.2h.2s0,0,0,0ZM458.8,57.6v.3h-.3c0,0-.2-.3-.2-.3l-.2-.3-.2-.8-.4-.6.5-.7h.3c0,0,.4,0,.4,0v.4s-.2.6-.2.6v.6l.3.6h0ZM458.9,59.1h-.1c0,0-.5-.5-.5-.5v-.3c0,0,0-.3,0-.3h.2l.3.2.2.3v.3s0,.2,0,.2ZM464.7,62.3v.3c0,0-.1.4-.1.4l-.7.2h-1.3s-.9-.2-.9-.2l-.4-.3v-.2c0,0,0-.4,0-.4h.2s.3.2.3.2h.4c0,0,.6-.4.6-.4l.3-.3v-.2s-.1-.3-.1-.3h.2c0-.1.7,0,.7,0l.3.2.5.8h.2q0,.1,0,.1ZM454.8,64.9l1.2.2h.1c0-.1.3.3.3.3v.3s0,.2,0,.2h-.2c0,.1-.3.2-.3.2l-.4-.3-.7-.7v-.2h0ZM452.9,65.3l.7.2,1.2.8,1.1.5h1.1c0,.1.8.4.8.4l.5.5.4.5.2.5.5.3h.8c0,0,.6.3.6.3l.5.4,2.6,1,1.1.5.6.5.2.3v.3s0,.4,0,.4l.4.7h.2c0,0,0,.4,0,.4v.6s.2.4.2.4l.2.2h-.1c0,0-.8-.3-.8-.3h-.5c0,.1-.2.6-.2.6v.4s.1.4.1.4l1,1.2.3,1.1v1.3s0,.5,0,.5v1.1c-.1,0-.2,1.8-.2,1.8v.6s-.4.6-.4.6l-.9.9v-.2h-.2s-.2,0-.2,0l-.3.7-.3,1.3-.3.7h-.4c0,.1-.2.3-.2.3v.3c0,0-.5.2-.5.2h-.8c0,0-.5.5-.5.5l-.4,1.1v.5s-.2.7-.2.7v.6l.2.5.6.5,1.1.5h.6c0,0,.4-.1.4-.1l.5-.8.4-.3h.5c0-.1.2-.5.2-.5l.9-1.6v-.3h-.3c0-.1,0-.2,0-.2h.4c0,0,.4-.3.4-.3l.3-.4.5-.3,1.3-.4.7-.5h.5c0,0,.7.2.7.2l.8.6.7.8.5,1.1.6,2.8.8,4.6.5,2.5.3.5v.3c.1,0-.5,3.6-.5,3.6l-.5,1.5-.9.8-.9.8-1.2,1.4-1.3.7-.7.4v.3c-.1,0-.3,0-.3,0l-.3.8-.3,1v.8c-.1,0,0,.4,0,.4l-.3.3-.5.5v.2c0,0,0,.3,0,.3v.2h-.5c0,.1-.4.7-.4.7l-.8,1.4v.3c-.1,0-.2,0-.2,0h-3.1c0,.1-3.1.2-3.1.2h-3.1c0,.1-3.1.2-3.1.2v-.7h-19.4l.6-.3,1-.8.6-.7.5-1,.5-1.2,1.1-1.8.5-1.1.5-1.4.4-1.4.2-1.5v-1.6c.1,0,.1-1.6.1-1.6l-.3-1.6-.5-1.7-.3-.8v-.2c0,0-1-2.1-1-2.1l-1-3v-.2l1-1.8v-.2s0-1.5,0-1.5l-.2-.7-.5-1v-.2s1-1.2,1-1.2l.6-1,.5-1.2.3-1.4.2-1.5v-1l-.2-.5v-.4s.2-.3.2-.3l1-.4.3-.6v-1.1c0,0,.3-.5.3-.5h.3l.3-.2.3-.5h.4c0-.1.5,0,.5,0l.7-.7.9-1.5.7-.9.5-.2h0c0,.1-.3.6-.3.6v.5c0,0,0,.5,0,.5v.5c0,0-.3.7-.3.7v.2c.1,0-.2,1.2-.2,1.2v.6s.2.4.2.4h.3c0-.1.3-.9.3-.9v-.4c0,0,0,0,0,0v-.3s.3-.6.3-.6l.2-.3h.2s0,.4,0,.4v.6c0,0-.6,1.5-.6,1.5v.4c0,0,0,.1,0,.1l.6-.9.5-1.4.4-1.1v-.6c0,0,0-1.6,0-1.6v-.6s.2-.4.2-.4l.5-.5.9-.6.9-.3h.9s.6-.2.6-.2l.3-.3v-.2c-.1,0-.7-.2-.7-.2l-.5-.4-.3-.5v-.6c0,0,0-.7,0-.7l.4-.7.7-.7.2-.5-.2-.3h.3c0-.1.8,0,.8,0h.6c0,0,.3-.4.3-.4h0ZM445.4,67.8h-.3c0,0-.2,0-.2,0v-.6s.4-1.1.4-1.1l.3-.5.4.2h0c0,.1,0,1.3,0,1.3l-.2.5-.4.3ZM441.4,74.5v.2c-.1,0-.4,0-.4,0l-.2-.2-.2-.6h0c0-.1.5,0,.5,0l.2.2v.4h0Z"/>
  <path id="US-MN" d="M371.8,26.3l1.1-.2h1s1,.1,1,.1h.5c0,.1,1.5.7,1.5.7l1,.5,1.4,1,.8.4.4,1,.4,1.3h.6l.5-.7h1.2c0-.1,1.6.4,1.6.4l1.4,1.5,2,1.3,1.2.6h1.2l1.6-.6,1.7-1.2,1.2-.2h.7c0,.1.4,1.1.4,1.1l.5.4h1.3c0-.1,2.7,0,2.7,0l2.2-.3.5.6.4.9.9.3,1.2-.3,1.9.2h-.3c0,.1-.3.1-.3.1l-.4.2-.5.5-1,.6-1.6.8-1.9.8-3.8,1.4-2.3,1.4-1,.9-4,4.3-2.4,2.3-4,3.2-.4.4v.4h-.2l-.7.8-.3.5h-.6v8l-.3.2-.4.5h-.5c0,.1-2.5,1.7-2.5,1.7l-.4.5-.5,1.1-.8,1.2-.2.6v.9s1.3.7,1.3.7l.5.7.2.8v.7s-.7,1.4-.7,1.4v.5c-.1,0,0,1.7,0,1.7l-.3.5.3,1.4v.5s-.2,1.5-.2,1.5v.4c-.1,0,.1.8.1.8h0c0,0,1.2,1.1,1.2,1.1l1,.6.9.2.7.5.5.7.7.5.9.2.9.6,1.3,1.5.7,1.2,1.2.9,1.9.9,1.2.8.6.7.4,1.8.3,3.8h-6.2s-42.8,0-42.8,0v-23.6l-.7-1-1.6-.8-.4-.5-.7-1.2-.3-.5v-.4s.3-.5.3-.5l1.4-1.3.5-.6.2-.6.3-1.3v-1c-.1,0,0-1.6,0-1.6l-.3-1.2v-.6c0,0-.2-.8-.2-.8l-1.1-2-.3-1.6-.3-.8v-2c0,0,0-.6,0-.6l.2-1.1-.5-.8v-.6c0,0-.3-4.9-.3-4.9v-.7c-.1,0-.1-2.3-.1-2.3l-.8-2.4-.4-.8-.2-1v-.5s-.6-1.6-.6-1.6l-.5-1.8v-1.6s-.1-1.2-.1-1.2v-.9s0-1.4,0-1.4v-.8c.1,0,.1-1.2.1-1.2l-.9-4.5h19.4s0-3,0-3v-2.4s2.1.3,2.1.3l.6.4.2.2v.7c0,0,.1,2,.1,2l.4,1.7.8,2h0v.8c0,0,.4.5.4.5l.5.5,2,.5,3.4.6,1.9.7.5.8.9.3,1.3-.2,1-.4.9-.8h0ZM371.8,26.3h0,0Z"/>
  <path id="US-MO" d="M390,134.9l-.5,1.9v1.6l.3,1.9.4,1.4.4.9,1.6,1.8,2.7,2.6,1.7,2.5.7,2.3.8.9.9-.5,1.2.2,1.3.4.7.5.2.2v.2c0,0,0,.2,0,.2l-.2.5-1.6,3.9-.5,1.8v.7c0,0,.7,1,.7,1l1.2,1.2,1,.8.9.4,1.4,1,1.9,1.6.9,1.2v.8l.2.8.4.8v.8l-.4.8.2,1,.7,1.3.6.8.5.3h.1c0-.1,0-.3,0-.3v-.2s0-.2,0-.2h0c0,0,0-.1,0-.1l.5.3.7.7.3.9v1.2c0,0-.3,1.1-.3,1.1l-.4,1-.5.4h-.2c0,0-.5-.2-.5-.2h-.2c0,0-.4.3-.4.3l-.5,1h0s-.2.1-.2.1h-.1c0,0,0-.2,0-.2v-.3c0,0-.3-.3-.3-.3h-.3s0,.2,0,.2v.3s0,.1,0,.1l.2.9v.6c-.1,0-.6.2-.6.2v.3c0,0,.2.4.2.4v.2h0c0,.1-.3.2-.3.2h-.2c0,0-.2.4-.2.4l.4.6v.7c0,0-.6.9-.6.9v.3c0,0-1.8,0-1.8,0h-1.5s-1.5,0-1.5,0h-1.5s.7-1.2.7-1.2l.5-.4.3-.5.6-.4.7-.9v-.4c0,0,0-.4,0-.4l-.4-.6-.4-.9h-42v-10.4s0-3.1,0-3.1v-1.5s0-1.5,0-1.5v-1.5s0-3.1,0-3.1v-1.5s0-1.6,0-1.6v-1.6s0-3.1,0-3.1v-1.6s0-.5,0-.5l-1.5-.8-.7-.8-.3-1-.7-1-1-1-.2-1.1.7-1.1.6-.6h.4s0-.5,0-.5l-.3-1-.5-.4-.7.2h-.6s-2.2-1.6-2.2-1.6h-.2c0-.1-.7-1.2-.7-1.2l-.3-1.2-.5-.8-.8-.4-.5-.8-.2-1.3-.5-1.3-.2-.4h4.7s2.4,0,2.4,0h2.4s2.4,0,2.4,0h4.8s2.4,0,2.4,0h2.4s2.4,0,2.4,0h4.8s2.4,0,2.4,0h2.4s2.4,0,2.4,0h2.4s.5.9.5.9l.5.3v.3c0,0,.8.5.8.5l.2.5.8.7h0Z"/>
  <path id="US-MS" d="M420.8,198.7l.8.8v.3s0,.2,0,.2v.5c0,0-.3,2.1-.3,2.1l-.2,2.1-.2,2.1-.2,2.1-.2,2.1-.2,2.1-.2,2.1-.2,2.1-.2,2.1-.2,2.1-.2,2.1-.2,2.1-.2,2-.2,2-.2,2-.2,2v2.1c0,0,.2,2.1.2,2.1v2.1c0,0,.2,2.1.2,2.1v2c0,0,.2,2,.2,2v2c0,0,.2,2.2.2,2.2l-2.8.2-1.2-.5h-.5c0-.1-.3-.1-.3-.1l-1.4.5-1.6.4h-.4c0-.1-.5-.1-.5-.1l-1.2,1.3-.7.3h-.2c0,0-.3-.2-.3-.2l-.2-.2-.3-.8v-.6c-.1,0-.5-1.2-.5-1.2l-.5-.7-.5-.5-.2-.5v-.3l-.2-.5v-.4s.7-1.7.7-1.7l.3-1.3h-18.1v-.3s.4-.4.4-.4v-.5c.1,0-.2-1.2-.2-1.2v-.7c.1,0,.7-.1.7-.1l.3-.6v-1.1l.2-.8.4-.4.4-.9.4-1.5.8-1.2,1.2-1,.6-.8v-.6s.2-.3.2-.3l.2-.2.4-.4.5-.6v-.4c0,0,0-.3,0-.3v-.3s-.5-.6-.5-.6l-.7-.5-.4-.7v-.6s-.1-.5-.1-.5l-.3-.4v-.4c0,0,.5-.4.5-.4v-.3s-.4-.3-.4-.3v-.6l.4-.8v-.6s-.5-.3-.5-.3v-.5s0-.3,0-.3l.4-2v-.3c0,0-.5-.6-.5-.6v-.7s.2-.9.2-.9v-.7c-.1,0-.5-.2-.5-.2v-.3c0,0-.2-.4-.2-.4l.4-.4v-.3s-.3-.3-.3-.3l.2-.5.8-.6.2-.3.2-.3v-.8c.1,0,0-.5,0-.5l-.2-.3v-.2c0,0,.2-.2.2-.2l.9-.3.3-.2v-.3c0,0-.2-.6-.2-.6l.3-.7.9-.7.5-.6v-.5s.5-.4.5-.4l.8-.2.5-1,.2-1.8.2-.8h.4c0-.1.2-.4.2-.4v-.5c0,0,.6-.5.6-.5l.9-.5.4-.5v-.3c-.1,0-.1-.4-.1-.4h19.9s0,0,0,0ZM417.1,251.9h-.1c0,.1-.8-.1-.8-.1l-.5-.2v-.2c0,0,1.3.4,1.3.4l.2.2Z"/>
  <path id="US-MT" d="M271.7,63.2v6.2s0,3.1,0,3.1v3.1s0,0,0,0h0c0,0-66.3,0-66.3,0v6.6l-.6-.4-.4-.4-.3-.5-.6-1.3-.4-.5-.3-.3h-.3s-.4.1-.4.1l-.3.3v.5c0,0-.4.6-.4.6v.5s.2.3.2.3h0c0,.1-.2.3-.2.3l-1.5-.2-1.3.3-.9-.2h-1.7c0,.1-1.5,0-1.5,0h-.5c0,0-.3.4-.3.4l-.4.7h-.1c0,.1-.2.1-.2.1l-2.4-.4h-.6l-.7.5-.2.3v.4s-.2.1-.2.1h-.2s-.5-.3-.5-.3l-.6-.5-.3-.3v-.8c0,0-.5-.9-.5-.9v-.8c0,0-.4-.7-.4-.7l-.4-.7-.4-.4h-.4c0-.1-.8,0-.8,0h-.2c0,0-.9-1-.9-1l-.3-.4v-.4c0,0,.2-.9.2-.9v-.5c0,0-.3-.6-.3-.6l-.3-.5-.5-.4-.5-.9-.8-1.3-.2-1-.3-.8v-.8c0,0-.4-.5-.4-.5v-.6s0-.2,0-.2h0c0,0-.6-.4-.6-.4l-.7-.6h-.3c0-.1-.1-.1-.1-.1v.2c0,0-.1.3-.1.3l-1,1.1-.9.5-.4.5-.4.2h-.2s-.3-.1-.3-.1l-.9-.7-.8-.3v-.2c0,0,0-.6,0-.6l.3-.7-.4-1.3v-.5c.1,0,.4-.3.4-.3l.8-.5v-.2c0,0,0-1.2,0-1.2l-.5-.5v-.3c-.1,0,0-1,0-1l-.2-.7.4-.6v-1s.3-1,.3-1l.3-1.5v-.6c0,0,.3-.7.3-.7v-.7c.1,0,.2-.5.2-.5v-.3c0,0-.2-.1-.2-.1h-.3l-1.3.3h-.4s-.4-.2-.4-.2l-.2-.2v-.6c0,0-.3-.4-.3-.4h-.2c0,0-.6.2-.6.2h-.2c0-.1-.2-.6-.2-.6l-1-.9-.5-1.1-.9-.9-.9-1.3-1.7-2-.4-.4-1.3-.7-1-1-1-.7h0v-.2h0c0,0,.3-.3.3-.3v-.4c0,0-.3-.8-.3-.8l.2-.8-.3-1v-.4c-.1,0-.9-1-.9-1l-.5-.9-.8-.9-1-1.4v-14h113.1v2.7s0,2.7,0,2.7v5.4s0,2.7,0,2.7v2.7s0,2.7,0,2.7v2.6s0,2.6,0,2.6v5.2s0,2.6,0,2.6v5.2s0,2.6,0,2.6v2.6h0Z"/>
  <path id="US-NC" d="M535.7,180.7l-.2.9v.5c.1,0,.6.5.6.5l.5,1.3.4,1.8-.6-.7-.6-.4-1-.3-.9-.5v.8c0,0,0,.8,0,.8l-.7-.2-.5-.3.4.9-.9-.3h-.6s-.4.8-.4.8l-.5.5-.8.2-1.1-.7-.4-.8-.2-.9v1.1c0,0,.1,1.2.1,1.2v.9c0,0,1,.2,1,.2h1c0-.1,1.4-.1,1.4-.1l.9-.2.5-.3,1.3.2v1.1c0,0,0,1,0,1v1.1c0,0,.3,0,.3,0l.4-.4.2-2,1.2-.7h.4s.4.7.4.7v.7c.1,0,.3.9.3.9l-.3,1.4-1.8,1.6-1.3,1.5-.7.3-1-.2-1.1-.4h-.5c0,0-.4,0-.4,0l-.2-.5-.2-.8-.4-.3h-.3s-.2.9-.2.9l-1,.2-1.4-.4-1.4-.7.6.8,3.6,1.5.4.3.4.4-.5.6-.4.7v.6c0,0-.2.3-.2.3l-1.4,1-.8-.2-2-1.7.9,1.5.7.6,1.5.3,2.7-.5.9.6-.7,1.1-.7.8h-1c0,0-.8.3-.8.3l-.2.5h-.6s-.9,0-.9,0h-1.5s-.8,0-.8,0l-1.1,1h-.4c0,.1-.6,0-.6,0l-.2-.8-.3-.4v2c0,0,.3.3.3.3l-1.3.9-1.2,1.1-.5.3-.5.5-1,1.5-.3,1.1-.4,1.2v-.6s0-1,0-1l-.3-1.1-.2,2-.4.9h-3.7c0,0-1.5.4-1.5.4l-1.4-1.4-1.3-1.3-1.3-1.3-1.3-1.3-1.3-1.3-1.3-1.3-1.3-1.3-1.3-1.3h-1.3s-1.3,0-1.3,0h-1.3s-1.3,0-1.3,0h-1.3s-1.3,0-1.3,0h-1.3s-1.3,0-1.3,0v-.9s0-.6,0-.6l-.8-1.1-.5-.6-1,.5v-.3c0,0,0-.5,0-.5v-.2c0,0-.4-.1-.4-.1h-1.5c0,0-1.5-.1-1.5-.1h-1.5c0,0-1.5-.1-1.5-.1h-1.5c0,0-1.5-.1-1.5-.1h-1.5c0,0-1.5-.1-1.5-.1h-.3c0-.1-.7.3-.7.3l-1.8.6-.9.5h-.3s-1.5.5-1.5.5l-1.5.5h-3s-2.8,0-2.8,0h-2.8s-2.8,0-2.8,0l.3-2.4.2-.6h.3c0-.1,1-.1,1-.1l.6-.3.5-1.5,1.2-1.2.6-.3.8-.2,2-.3,2.1-1.1,1.5-1.1,1.2-.3.4-.4.3-.5.2-.7v-.2c.1,0,.8,0,.8,0l.5-.6.5-.3.5-.2h.3v.2c.1,0,.2.5.2.5v.2h.6c0-.1.4-.4.4-.4l1-1,.7-.4,1.1-.2.8.5.5-.2,1.3-2.1.5-.4.4-.2h.7v-.6l.2-.9v-.6s.5-.9.5-.9l.2.2h3.4s3.4,0,3.4,0h3.4s3.4,0,3.4,0h3.4s3.4,0,3.4,0h3.4s3.4,0,3.4,0h3.4s3.4,0,3.4,0h3.4s3.4,0,3.4,0h3.4s3.4,0,3.4,0h3.4s2.3.2,2.3.2h0ZM536.4,180.7h.3l.9,3.7,1.9,4.1.2.7-.4-.6-1.4-2.7-.8-2-.7-3.2h0ZM538.8,188.8v.2c-.1,0-.8-1.3-.8-1.3l.6.4v.3c.1,0,.1.3.1.3h0ZM539.6,195.9l-1.3.3h-.1c0,0,1.5-.8,1.5-.8l.5-2.3v-1.1c0,0-.2-1.9-.2-1.9v-.4l.2.6.2,1.8v1.3c0,0-.5,1.9-.5,1.9l-.3.5h0ZM537.4,196.5l-1.7.8h-.2s1.1-.6,1.1-.6l.8-.2ZM530.6,202.7h-.2c0,.1.9-1.3.9-1.3l1.7-1.8.5-.3-1.4,1.5-1.4,1.8h0ZM530.2,202.6h-.2s-.4,0-.4,0l-.5-.2v-.2c-.1,0,.4,0,.4,0l.7.5h0Z"/>
  <path id="US-ND" d="M341.8,63.2h-70.2v-5.2s0-2.6,0-2.6v-2.6s0-2.6,0-2.6v-5.2s0-2.6,0-2.6v-5.3s0-2.7,0-2.7v-5.4s0-2.7,0-2.7v-2.7s0-2.7,0-2.7h64.1l.9,4.5v1.2l-.2.8v1.4c.1,0,0,.9,0,.9v1.2c.1,0,.1,1.6.1,1.6l.5,1.8.7,1.6v.5s.2,1,.2,1l.4.8.8,2.4v2.3s.1.7.1.7l.2,4.9v.6c0,0,.5.8.5.8l-.2,1.1v.6s0,2,0,2l.3.8.3,1.6,1.1,2,.2.8v.6c0,0,.3,1.2.3,1.2v1.6c0,0,0,1,0,1h0Z"/>
  <path id="US-NE" d="M342.5,108.2h.3c0,0,.6,1.2.6,1.2l.3,2,.6,1.6.9,1.2.4.9v.6l.2.6.4.7.2,1.1v1.5c0,0,0,.8,0,.8h.4c0,0,.2.3.2.3v.3c0,0,0,.2,0,.2l.4.2v.4c0,0,0,.7,0,.7v.5c.1,0,.5.2.5.2v.4c0,0-.2.5-.2.5v.4s.4.3.4.3l.2,1.3v2.4c.1,0,0,1.4,0,1.4l-.2.4.3.8.6.9.2.4.5,1.3.2,1.3.5.8.8.4.5.8.3,1.2.7,1h.2c0,.1-62.9.1-62.9.1v-12.3h-18.8v-6.2s0-3.1,0-3.1v-3.2s0-3.2,0-3.2v-3.2s0-3.2,0-3.2v-3.2s52.6,0,52.6,0l2.8,1.9,1.7.6.8-.6,1.7-.3h2.7c0,0,1.7.2,1.7.2l.7.6,1.4.7,2,.8,1.2.8.4.9.7.5.7.2h0Z"/>
  <path id="US-NH" d="M584.9,101l-.4,1.7-.3.8h-1.1c0,0-.5,0-.5,0l-1,.6-.6.2-1,1-.8.3h-1.3s-1.3,0-1.3,0h-1.3s-1.3,0-1.3,0h-1.3s-1.3,0-1.3,0h-1.3s-1.3,0-1.3,0l-.2-.5-.5-.8v-.3c-.1,0,0-.4,0-.4l.3-1,.2-.3.2-.6.3-2.4.3-1.4.2-2.5.2-.8.2-.5.4-1.2.7-1,.5-1.2.5-1.1v-.6c0,0,.5-1.4.5-1.4l.3-2.4.3-.4,1.3-.3.4-.2,1.3-1,.4-.4.3-.4.2-.7.2-.2v-.4s-.4-1.6-.4-1.6v-.6s1-1.8,1-1.8l-.2-1,.2-.3.9-2.6.9-1.2,1.2.4h.6s.5-.5.5-.5v1.3c0,0,.1,1.5.1,1.5v1.5c0,0,.2,1.5.2,1.5v1.5c0,0,.1,1.5.1,1.5v1.5c0,0,.2,1.5.2,1.5v1.5c0,0,.1,1.5.1,1.5v1.4c0,0,.1,1.5.1,1.5v1.4c0,0,.2,1.4.2,1.4v1.4c0,0,.1,1.4.1,1.4v1s0,.9,0,.9l.3.8.8,1.2.2,1,.8,1.2h0Z"/>
  <path id="US-NJ" d="M555,127.3l-.2,1-.9,2-.4.5-.5.4-.3.2-.3.3-.4.5-.3,1,.2.9,1.8.3.5-.3.2.6v.9c.1,0,0,1,0,1l-.3,1-.2,1.2-.2,1.8-.3,1.7v-.5s.1-2,.1-2l-.3.2-.2.5-.5,2.6-.8,1.4-.7,1-.7-.2.2.8-.2.4-.2.8-.4.5h-.4s-.6.3-.6.3l-.2.3v.5s-.4.5-.4.5l-1.4,2.5-1.2.7h-.3c0-.1.3-1.3.3-1.3l.2-1.2-.7-.5-.7-.3h-.8s-.9-.9-.9-.9l-1.2-.7-1.6-1.8v-.5s0-.8,0-.8l.5-1.3.5-.9.7-.5,1.9-.5.5-.8.3-.6.5-.4,1.1-.8,1.6-.9-2.3-3.1-.5-.2-.6-1.5-.7-.4-.2-.2v-1.2s0-.7,0-.7v-.4c0,0,.7-.3.7-.3l.3-.7v-.3l-.4-1.1v-.3l.9-.7,1.1-1.3.7-1.4.3-.4.3-.3.7-.4.9.6.9.6.9.6.9.6.9.6.9.6.9.6.9.6h0ZM552.9,143.4l-1.1,1.8v-.3s1.4-2.3,1.4-2.3l-.3.8h0Z"/>
  <path id="US-NM" d="M281.2,181.3h-.4v3.3s0,3.3,0,3.3v6.5s0,3.2,0,3.2v3.2s0,3.2,0,3.2v6.4s0,3.2,0,3.2v6.3s0,3.1,0,3.1v3.1s0,3.1,0,3.1v3.1h-10.6s-16.9,0-16.9,0h-2.1s-4.3,0-4.3,0l1,2h0l1.1.6h0s-2.1,0-2.1,0h-4.1s-2.1,0-2.1,0h-2.1s-2.1,0-2.1,0h-2.1s-2.1,0-2.1,0v3.7s0,1.2,0,1.2h-3.3s-3.3,0-3.3,0h-1.2s0-60.1,0-60.1v-4.2h56.9v5.8h0Z"/>
  <path id="US-NV" d="M177.3,175.4v9.6s-.2,0-.2,0l-.5,1.2-.6.5h-.5l-.5-.3-.5-.7-.7-.4h-.9c0,0-.8,0-.8,0l-.7.3-.4.4-.2.8v.3c0,0,.5.8.5.8v1.2s0,1,0,1l.3.5v.6s-.1,1-.1,1v.8c.1,0,.7,1.4.7,1.4l-.2,4.1h0c0,0-2.6-2.3-2.6-2.3l-2.4-2.3-2.4-2.3-2.4-2.3-2.4-2.3-2.4-2.3-2.4-2.3-2.4-2.3-1.7-1.6-1.7-1.6-1.7-1.6-1.7-1.6-1.7-1.6-1.7-1.6-1.7-1.6-1.7-1.6-2.2-1.9-2.2-1.9-2.2-2-2.2-2-2.2-2-2.2-2-2.2-2-2.2-2v-6.8s0-30.2,0-30.2h42.1s14,0,14,0v27.1s0,24.4,0,24.4v1.8s0,7.4,0,7.4h0Z"/>
  <path id="US-NY" d="M561.2,105.1l-.3,1.1-.3,1.1-.3,1.1-.3,1.1-.3,1.1-.3,1.1-.3,1.1-.3,1.1.2.3v1.2c0,0-.2,1.2-.2,1.2v1.2c0,0-.2,1.2-.2,1.2v1.2c0,0-.2,1.2-.2,1.2v1.2c0,0-.2,1.2-.2,1.2l.3.5.3.5-.3.2-.5.3-.6.4-.8.5.4.6.5.8-.4.3-1,1.1-.7.6-.6.2-.3.5-.4.3.4-1.1.4-.9.3-1.8v-1.4c0,0-.5-.6-.5-.6l-.4-.4.5,1.4v1.7c0,0,0,0,0,0l-.9-.6-.9-.6-.9-.6-.9-.6-.9-.6-.9-.6-.9-.6-.9-.6-.2-.5-.3-.4-1.7-.6-.4-.4-.4-.6-.3-.7v-.7c-.1,0-.1-.6-.1-.6v-.7c.1,0-.3-.4-.3-.4v-.4l-.3-.3-1.1-.5-.3-.7-.7-.7h-41.6v-3.5l.5-.3,1.8-1.2.9-.8,1-.7,1-.5.8-.7.6-.9.7-.7.7-.4.4-.5v-.5s0-.6,0-.6l-.3-.8v-.6s.2-.5.2-.5v-.3s0-.2,0-.2l-1.5-.5v-2.2c0,0,0,0,0,0h0s3.4-1,3.4-1l2.2-.3h2.7c0,0,3.2.4,3.2.4l1.2.4.8.6.9.2,1-.3h1.4c0,0,1.8,0,1.8,0h1c0,.1.1.3.1.3h.1s.1-.3.1-.3l.5-.3,1.3-.5h.2c0,0,.3-.1.3-.1l.4-.6.7-.6,1-.7.9-.4h.8s.5-.2.5-.2l.3-.3v-.3c0,0,0-.2,0-.2v-.3s0-.1,0-.1h0c0-.1,0-.3,0-.3v-1.1c0,0-.2-.5-.2-.5l-.2-.4v-.3c-.1,0-.1-.3-.1-.3l.5-.3v.3s0,0,0,0h.2c0-.1.5-.8.5-.8v-.3c0,0,.4-.3.4-.3l.3-.4h-.3c0,0-.7,0-.7,0h-.2c0-.1.4-.7.4-.7v-.3c0,0-.2-.1-.2-.1h-.2s-.8.4-.8.4h-.2s0-.2,0-.2l-.4-.6,1.1-1,3.8-2.8.4-.4v-.4c.1,0,0-.3,0-.3h-.1c0,0,0-.2,0-.2l3.7-3.6,2.1-1.7,1.7-.9,1.3-.5h.9c0,0,.5,0,.5,0h10.5s2.3,0,2.3,0v.9c0,0-.1,1-.1,1l.2,1.1-.2,2.4.6,1.8v1.2c-.1,0-.1,1.3-.1,1.3v.3c0,0-.6.8-.6.8l-.3.7-.2.7v.5l.4,2.1v.9c0,0,0,.5,0,.5l-.4,1.7v.5s0,.1,0,.1h.1l.4-.5h.2c0,0,.2,0,.2,0l.6.8v1.5s0,1.1,0,1.1v1.2s0,1.8,0,1.8v1.3s0,1.2,0,1.2v.9s-.2.7-.2.7l.2.8h0ZM534.3,85.4h-.3c0,.1,0,0,0,0h0c0-.1.2-.3.2-.3h.4,0c0,.1-.3.4-.3.4h0ZM532.9,89.1h-.1s0-.2,0-.2l.2-.2h.3c0,0,0,0,0,0l-.3.4h0ZM507.8,101.7l-.3.4h-.3s-.2-.2-.2-.2v-.3c0,0,0-.3,0-.3l.2-.2h.7c0,.1,0,.3,0,.3l-.2.2h0ZM568.2,127.4l-.7.8h.6c0,0,.5-.2.5-.2l.5-.5,1.1-.7,1-.3h.3c0,0,.5.4.5.4l.9-.4,1-.2-4.1,2.1-.8.2-1.2.6-1.1.4-.8.2-4.1,1.5h-.3s-.3-.1-.3-.1l-3.3.8h-1.4c0,0-1.2.4-1.2.4l.9-.6v-.2s-.2-.2-.2-.2h-.5s-.5.7-.5.7l-.8.2-.2-.7.3-.5.4-.5.8-.8,1.2-.5.6-.5.4.4v-.5c0,0,.4-.3.4-.3l.3-.2h1.2c0,0,.3-.3.3-.3h.3s.9.2.9.2h.9c0,0,.7-.4.7-.4h.7c0-.1,1.9-.2,1.9-.2l1.9-.2.8-.4,1.6-1.2.9-.3-1.4,1.4-.8.7h0ZM552.4,133.1h-.5s.5-1.1.5-1.1l.8-.5h.3v.9c-.1,0-.7.5-.7.5l-.5.2h0Z"/>
  <path id="US-OH" d="M492.8,131.6l-1.1.5-.2.5.3.6.2.8v1s-.6,2.2-.6,2.2l-1.3,3.4-.6,2.1v.9s-.9,1.1-.9,1.1l-1.7,1.4-1.2.8-.7.3h-.6s-.4-.4-.4-.4l-.5.2-.6.8-.5.4h-.5s-.4.5-.4.5l-.3,1-.3.6-.3.2v.5s.2.9.2.9v.3h-.3s-.3.2-.3.2l-.4.5h-.2c0,0,0-.7,0-.7l-.3-.4-.5-.3-.7.6-.9,1.4-.4.9v.6c.1,0,.2.9.2.9l-.2.4h-.5c0,.1-.4.7-.4.7l-.2.9-.7.5-1,.2-1.1-.4h0s-1.3-1.1-1.3-1.1l-.8-1-.3-1h-1.1s-1.9.9-1.9.9h-1.4c0,.1-1-.5-1-.5l-.7-.2-.7.2-.7.4-.6-.2-.7-.7-1.1-.5-1.5-.3-1.1-.8-.6-1.3-.6-.9-.7-.5h-.8c0-.1-.8,0-.8,0h-.6c0,0-.4-.5-.4-.5h-.6s-.5.5-.5.5v-8s0-4,0-4v-4s0-4,0-4v-4s0-4.1,0-4.1v-4.1s3.2-.1,3.2-.1h3.1c0-.1,3.1-.2,3.1-.2h3.1c0-.1,0-.2,0-.2h0s.1.3.1.3h.8c0,.1.6.4.6.4l.5.4,1.6.8.5.5.5.3h.5s.3-.1.3-.1l.2-.3h.2s.3.3.3.3l.9.3h0c0,0-2.5.7-2.5.7l-.5.3.6.2h.6s.7-.3.7-.3h1.4c0,.1.2,0,.2,0h0c0,0,1.1.7,1.1.7h.4c0,.1.4,0,.4,0l.5-.3,1-.4,1.5-.5,1.5-.2h1.4c0,0,.9,0,.9,0l.8-.5,1.8-1.5,2-1.2,3.4-1.5,3.3-1.2v16.8h0Z"/>
  <path id="US-OK" d="M360.1,181.3l.2,1.6.2,1.6.2,1.6.2,1.6.2,1.6.2,1.6.2,1.6.2,1.6v1.2s0,1.2,0,1.2v1.2s0,1.2,0,1.2v1.2s0,1.2,0,1.2v1.2s0,1.2,0,1.2v1.2s0,1.2,0,1.2v1.2s0,1.2,0,1.2v1.2s0,1.2,0,1.2v1.2s0,1.2,0,1.2l-2.1-.6-.5-.4-1-.4-.9-.8-1.7-1.1-.7-.2h-.2s-.3.6-.3.6l-.9.4h-1.4c0-.1-.2-.3-.2-.3v-.3c-.1,0-.5-.2-.5-.2l-.3.2-1.3.4-.2.3h-.8l-.7-.2-1.9.7-.6.5-.7.2-.3.5h-.2c0,0-.7-.7-.7-.7l-.7-.2-1-.6v-.6s-.1,0-.1,0h-.2c0,0-.2,0-.2,0l-.4.5h-.2c0,.1-.2,0-.2,0l-1-.3-.4-.6-.2-.2h-.2s-.4.1-.4.1l-.2.6-.2.2h-.4c0,0,0,.4,0,.4l-.3.9-.2.2h-.2s-.2-.2-.2-.2l-.2-.3v-.3c0,0,0-.7,0-.7v-.2c0,0-.3,0-.3,0l-.5.3h-.4s-.5.3-.5.3h-.3c0,0-.3,0-.3,0l-.5-.5-.8-.3-.3-.6-.2-.2h-.2s-.2,0-.2,0l-.3.2-1,.8-.4.3h-.4s-.4,0-.4,0l-.2-.2v-.8s-.3-.2-.3-.2l-.9-.5-.2-.5v-.7c0,0-1.2.1-1.2.1h-1.3c0,0-.6.5-.6.5h-.3c0,.1-.4,0-.4,0l-1.1-.8-1.2.2h-.7c0,0-1.6-.7-1.6-.7h-1.2c0,0-.5-.2-.5-.2h-.3c0-.1-.1-1.1-.1-1.1l-.5-.8-.2-.2-.8-.5h-.1s0,0,0,0l-.2.6h-.3s-1-.1-1-.1l-.9.2-.5-.3-1.7-1.5-.7-.4h-.6v-8.3s0-6.9,0-6.9v-1.4s0-5.6,0-5.6h-28.2v-5.8h78.9v5.8h0Z"/>
  <path id="US-OR" d="M90.8,60.4l.9-.3.7.3.9.6.9,1.9.9,3.1.2,1,.7.6h.8s3.4.5,3.4.5h.5s.6-.1.6-.1l1.9-1.2,2.1-.4h2.5c0,0,1.5.4,1.5.4l.5.6h1.3c0,0,3.1-.6,3.1-.6l3.4-.5,1.8-.5,2.1-1,4.8-1.3h2.4c0-.1,1.2-.6,1.2-.6l.3-.2h2.7s5,0,5,0h2.5s5,0,5,0h2.5s2.3,0,2.3,0l.3.6,1,1.2,1.4,1,.9,1,.4,1.1-.7,2.5-1.8,3.8-1,2.4-.2,1.1-.9,1.8-1.6,2.5-.8,1.9v1.2s.6.7.6.7l1,.2.7.4.4.6v.6l-.3.5v.5c0,0,0,.5,0,.5v1c-.1,0-.7,2-.7,2h0c0,0,0,3.2,0,3.2v5.8s0,5.7,0,5.7v2.8s0,2.8,0,2.8v2.8s-67.9,0-67.9,0l-1.2-1.5-.5-2.3v-1c-.1,0,0-2.6,0-2.6l-.4-1.1-.9-1.8.4-1.6.4-1,1-4.2.2-.3h.4l.7-.7-.3-.2-.5.3.5-1.7.5-1.5.3-.5.2-4.7.3-3.6.5-1.2-.2-1.2.2-1.7v-1.7c-.1,0,.9-8.3.9-8.3v-1c-.1,0,.2-1.4.2-1.4l-.3-3.6v-4c.1,0-.1-.5-.1-.5v-.6c-.1,0,.1,0,.1,0l.5.6h2.2l1.4-.5.5.2.6.7h.8c0,.1,1,0,1,0h0Z"/>
  <path id="US-PA" d="M547.6,122.7l-.7.4-.3.3-.3.4-.7,1.4-1.1,1.3-.9.7v.3l.5,1.1v.3l-.3.7-.6.3v.4c0,0-.2.7-.2.7v1.2s.2.2.2.2l.7.4.6,1.5.5.2,2.3,3.1-1.6.9-1.1.8-.5.4-.9,1.1-1.4.4-.8.4-.2.2-.8-.3h-1.2s-.4.2-.4.2l-.3.3-.7,1h-34.8s-1.2,0-1.2,0h-1.2s-7.3,0-7.3,0v-5.7s0-5.7,0-5.7v-16.8l1.8-.7.8-.4.8-.4.4-.2.5-.2,3-1.6v3.5h3.9s11.7,0,11.7,0h1.3s11.7,0,11.7,0h1.3s11.7,0,11.7,0l.7.7.3.7,1.1.5.2.3v.4l.4.4v.7c-.1,0-.1.6-.1.6v.7c.1,0,.4.7.4.7l.4.6.4.4,1.7.6.3.4.2.5h0Z"/>
  <path id="US-RI" d="M580.2,118.4l-.3.3-.4-.5-.2-.5-.3-.3h-.3c0-.1.2,1,.2,1l-.6.9-.2,2.2-.8.9-2.3.6h-.7c0,0,.1-.8.1-.8l.2-.3v-.8s0-.5,0-.5v-1.8s0-1.1,0-1.1v-1s0-.7,0-.7v-1s0-.7,0-.7h1.7s.9,0,.9,0h1.3s0,.5,0,.5v.9s.4.1.4.1v.7s0,.5,0,.5l.3.3.3.3.3.6h0ZM580.1,121.1l-.5.3h-.5c0,0,.3-.5.3-.5v-.7c0,0,.4-.8.4-.8l.2-.2.3-.2v2ZM579,121.1l-.3.2v-.6c0,0,0-.7,0-.7h.2s0,.3,0,.3v.7h-.1Z"/>
  <path id="US-SC" d="M511.2,211.4h-.1s-2.5,1.7-2.5,1.7l-.7.7-2,2.8-.5,1.8-.4-.8v-.6c0,0,0-.5,0-.5l-.5,1,.5,1.5-.4.6-1.3,1-.7.2-.8.3-.3,1-1.1.9-.7.4-1.2-.3.4.9-.4.7-.8.5-1,.3h-.5s-.5.1-.5.1l-.4.4-.9.4-.9-.2h-1c0-.1-.6,0-.6,0l1,.4.5.6v.8c0,0-.4.3-.4.3l-.6.4h-.3c0,0-.2-.4-.2-.4l-.2-.8-.3.2v.4s-.3.1-.3.1l-.9-1.2v.9s.3.7.3.7l.3.4.3.2v.3c0,0-.5.8-.5.8l-.3.2h-.5c0,.1-.3.6-.3.6v.4c0,0-1.8-.9-1.8-.9l-.6-.8v-1s-.3-1.2-.3-1.2l-1.1-2-.8-.6-.5-1.3-.5-2.3-.8-1.5-1.1-.7-.8-.8-.4-.9-.4-.6-.4-.3-.2-.5v-.7s-.7-.8-.7-.8l-1.9-1.6-.5-1-.9-1-2.2-2h0l-2.2-4h0l-.3-.8-.5-.3h-.7c0-.1-.7-.5-.7-.5l-1.1-1h0l-1.8-1.2.4-1.1,1.4-1.5.5-.8h.2s1.5-.5,1.5-.5l1.5-.5h.3s.9-.5.9-.5l1.8-.6.7-.4h.3c0,.1,1.5.2,1.5.2h1.5c0,0,1.5.1,1.5.1h1.5c0,0,1.5.1,1.5.1h1.5c0,0,1.5.1,1.5.1h1.5c0,0,.3.2.3.2v.2c0,0,0,.5,0,.5v.3c0,0,1.1-.5,1.1-.5l.5.6.8,1.1v.6s0,.9,0,.9h1.3s1.3,0,1.3,0h1.3s1.3,0,1.3,0h1.3s1.3,0,1.3,0h1.3s1.3,0,1.3,0l1.3,1.3,1.3,1.3,1.3,1.3,1.3,1.3,1.3,1.3,1.3,1.3,1.3,1.3,1.3,1.4h0Z"/>
  <path id="US-SD" d="M341.8,63.2l-.3,1.3-.2.6-.5.6-1.4,1.3-.3.5v.4s.3.5.3.5l.7,1.2.4.5,1.6.8.7,1v23.6h-1.4s.2.9.2.9l.4.8v.5c0,0,0,.4,0,.4l-.2.3v.5c0,0,.1.2.1.2l.6.3.2.5v.5c0,0,0,.4,0,.4l-.4.7v1c0,0-.6,1.4-.6,1.4l-.5.9v.4c0,0,0,.3,0,.3l.8.9v.4s.3.5.3.5l.2,1-.7-.2-.7-.5-.4-.9-1.2-.8-2-.8-1.4-.7-.7-.6-1.7-.3h-2.7c0,0-1.7.4-1.7.4l-.8.6-1.7-.6-2.8-1.9h-52.6v-6.4s0-3.2,0-3.2v-3.3s0-3.3,0-3.3v-3.3s0-3.3,0-3.3v-3.3s.3,0,.3,0h0c0-.1,0-.2,0-.2v-3.1s0-3.1,0-3.1v-3.1s0-3.1,0-3.1h70.2Z"/>
  <path id="US-TN" d="M463.2,180.1h6.7s3.2,0,3.2,0h4.2s2,0,2,0l.4-.2h1s1.3,0,1.3,0l-.4.9v.6s-.3.9-.3.9v.6h-.7s-.4.2-.4.2l-.5.4-1.3,2.1-.5.2-.8-.5-1.1.2-.7.4-1,1-.4.3h-.3c0,.1-.2.1-.2.1v-.2c-.1,0-.2-.5-.2-.5v-.2h-.4l-.5.2-.5.3-.5.6h-.7s-.1.1-.1.1l-.2.7-.3.5-.4.4-1.2.3-1.5,1.1-2.1,1.1-2,.3-.8.2-.6.3-1.2,1.2-.5,1.5-.6.3h-1.2c0,.1-.2.7-.2.7l-.3,2.4h-3.1s-3.1,0-3.1,0h-3s-3.1,0-3.1,0h-1.5s-1.5,0-1.5,0h-1.5s-1.5,0-1.5,0h-1.5s-1.5,0-1.5,0h-3s-1.5,0-1.5,0h-1.5s-1.5,0-1.5,0h-1.5s-1.5,0-1.5,0h-3s-1.5,0-1.5,0h-.1v.2c.1,0,.3.2.3.2h-7.6s-5,0-5,0h-2.5s-4.9,0-4.9,0h0s.3-.5.3-.5l1.1-.8.5-1v-1.3c-.1,0,.2-1.1.2-1.1l.9-1,.4-1-.2-1,.5-.8,1.1-.6.2-.3v-.2s0-.2,0-.2h0c0,0,0-.3,0-.3h.2c0-.1.3-.2.3-.2v-.2c.1,0,.1-.3.1-.3l-.2-.5v-.2s.1-.3.1-.3l.5-.9v-.7c0,0-.3-.6-.3-.6l.2-.3h.2c0,0,.3-.1.3-.1h0v-.3l-.3-.4v-.3c0,0,.5-.2.5-.2v-.6c.1,0,0-.9,0-.9h.7s0,0,0,0h.1c0,0,.2,0,.2,0h0s6.7,0,6.7,0h1.6s4.7,0,4.7,0h0v-1.1l-.4-1.2h1.3c0,.1.8.2.8.2l.3.4h3.1c0,0,3.1-.1,3.1-.1h3.1c0,0,3.1-.1,3.1-.1h3.3c0,.1,3.3.2,3.3.2h3.3c0,.1,3.3.2,3.3.2h3.3c0,.1,3.3.2,3.3.2h3.3c0,.1,3.3.2,3.3.2h0s0,0,0,0h0s0,0,0,0h0s0,0,0,0h0s0,0,0,0h0Z"/>
  <path id="US-TX" d="M361.3,214l.5.5.4.2v.2c.1,0,.3,0,.3,0h.2s.4-.3.4-.3h.5c0,0,.4,0,.4,0h.9c0,.1.5.4.5.4v3s0,1.5,0,1.5v1.5s0,11.2,0,11.2l1.3,1.3.6.9.2.5v1.6c0,0,.2.4.2.4l.7.6v.4l.7,1.2v.5s.6,1.2.6,1.2l.4.3v.8c0,0,.3.6.3.6l-.3.5v.6c.1,0,0,.6,0,.6v.8c0,0-.5,1.2-.5,1.2l-.4.6-.5,1.1v.9s-.2,1-.2,1v.4s.2.7.2.7v1.8c0,0,0,.4,0,.4l-.6,1.1h-.5s-1,1.8-1,1.8l.6,1v.4s-2,.2-2,.2l-4.5,2-1.7,1.1v-.4c0,0,2.2-1.4,2.2-1.4l-.7-.2-1.2.3h-.4c0-.1.5-1.3.5-1.3l-.2-1h-.8s-.5.8-.5.8h-.4s-.5-.4-.5-.4h-.4c0,.1.3,2,.3,2l.5.8.5,1-1.2,1.2-1.1,1v1c-.1,0-1.3,1.2-1.3,1.2l-1.1.7-2.5,1.6-.7.3-1.1.8-1.6.6-1.5.9h-.5c0,.1,1-.6,1-.6l1.1-.8h-1c0,0-1.5-.2-1.5-.2h-.9s0,.3,0,.3l-.7.4-.7-.6-.3-.4-.2-.3h-.3c0,0-.3,0-.3,0l1.1,2.3h.5c0,0,.5.3.5.3l-.6.5-.7.4-1.1.3-.9-.9-.2,1.1v1.1c-.1,0-.4.3-.4.3l-.5.4-.3-.3v-.4c-.1,0-.4.4-.4.4l-.5.3h-.8s-.6.2-.6.2v.4l.2.4,1-.3-.4,1.1-.9,1.1-.8.3-1.2-.2h-.3c0,.1-.2.3-.2.3l1.3,1.8-.9,2.7-.5,1h-.4c0,.1-.4.2-.4.2l-1.5-.8-.8-.7.7,1.8,2,.5v.7c0,0,0,.6,0,.6l-.4.7-.4.9.3.6.3,1.5.3.7.3,2.2.3.9,1.8,3.4h.6s0,.4,0,.4v.7c0,0-1.3.2-1.3.2l-.5.3v.3c0,0-.2.2-.2.2h-.2l-.6-.2-1.4-1-2-.6-2.7-.2-1.8-.5-1-.7-1-.4h-1.1c0-.1-.9-.5-.9-.5l-.7-.7-1-.4-1.3-.2-.9-.5-.6-1.2h0s-.5-2.1-.5-2.1l-.7-1.3-1.3-1.6v-.2h-.1v-.3l.2-.9v-.7c-.1,0-.6-.5-.6-.5v-.6c0,0,.1-.6.1-.6v-.7s-.2-.8-.2-.8l-.8-.9-1.5-1-1.3-1.5-1-1.9-1-1.3-1-.7-.7-.9-.4-1.1v-.6c-.1,0,0-.2,0-.2l-.6-1.2-1.4-2.2-.8-1.6-.2-1-.9-1.2-1.6-1.4-.9-.9-.2-.6h0l-2.5-1.9-.7-1.2-.6-.4h-.7s-.3,0-.3,0v-.3h-.2l-.4.2h-1.3s-2.2,0-2.2,0l-1.6-.3-1-.5h-.7c0,0-.4.7-.4.7l-.8.4-1.3.2-1.1,1.2-.9,2.2-.4,1.4v.6c.1,0-.1.5-.1.5l-.6.3-.6.6-.6,1-.7.5h-.8s-1.6-.8-1.6-.8l-2.3-1.5-1.8-.9-1.3-.3-1.1-.7-1-1-.9-.7-.8-.3-1-1.1-1.1-1.9-.6-1.5v-1.6l-1.5-3.4-.8-1.5-.6-.7-1.1-.8-1.7-1-2.2-1.9-2.8-2.8-2-1.7-1.2-.6-1-1-.9-1.5-.8-.9h0s-1.1-.6-1.1-.6h0l-1-2h34v-6.2s0-3.1,0-3.1v-3.1s0-3.2,0-3.2v-3.2s0-3.2,0-3.2v-3.2s0-3.2,0-3.2v-3.2s0-3.2,0-3.2v-3.2s0-3.2,0-3.2v-3.2s0-3.3,0-3.3v-3.3h2.2s26.4,0,26.4,0v22h.5c0,.1.7.5.7.5l1.7,1.5.5.3.9-.2,1,.2h.3s.2-.7.2-.7h0c0-.1.1-.1.1-.1l.8.5.2.2.5.8v.9c.1,0,.4.1.4.1h.5c0,.1,1.3.2,1.3.2l1.6.6h.7c0,0,1.2,0,1.2,0l1.1.8h.4c0,.1.3,0,.3,0l.6-.6h1.3c0,0,1.1,0,1.1,0v.7c0,0,.3.5.3.5l.9.5.2.2v.8s.3.2.3.2h.4c0,0,.4,0,.4,0l.4-.3,1-.8.3-.2h.2s.2,0,.2,0l.2.2.3.6.8.3.5.5h.3c0,0,.3,0,.3,0l.5-.3h.4s.5-.3.5-.3h.2c0,0,0,.3,0,.3v.7c-.1,0,0,.3,0,.3l.2.3.3.2h.2s.2-.1.2-.1l.3-.9v-.3s.4-.1.4-.1l.2-.2.2-.6.4-.2h.2s.2.2.2.2l.4.6,1,.3h.2s.2,0,.2,0l.4-.5h.2c0,0,.2,0,.2,0h0c0,0,0,.6,0,.6l1,.6.7.2.7.7h.2c0,0,.3-.5.3-.5l.7-.2.6-.5,1.9-.7.7.2h.8l.2-.3,1.3-.4.3-.2.4.2v.3c.1,0,.3.1.3.1l.9.2h.5s.9-.4.9-.4l.4-.5h.2s.7.2.7.2l1.7,1,.9.8,1,.4.5.4,2.2.5h0ZM356.1,263.4h-.5c0,0,2-1.6,2-1.6l.4-.5h.5s-.9,1-.9,1l-1.6,1.2ZM339.9,274h-.3s.4-.5.4-.5l.7-.3,1.5-1.1h.6c0,0,.3-.5.3-.5h.1c0,0,0,.4,0,.4l-1.2.7-2.1,1.3h0ZM337.5,276.7h-.2s.5-.8.5-.8v-.3c0,0,.8-1.1.8-1.1l.4-.2.2.5-.8.8-.9,1.2h0ZM334.3,283l-.3.6v-.9c0,0,.8-2.1.8-2.1l1.5-2.7.7-.5-1.8,3-1,2.5h0ZM336.1,295v.5c-.1,0-.9-2.3-.9-2.3l-1.3-5.1v-2.9s.2-1,.2-1l.3,4.2,1.4,5.2.3,1.5h0Z"/>
  <path id="US-UT" d="M205.4,114.7v3.2s0,9.4,0,9.4h18.9v48.3h-14.7s-11.8,0-11.8,0h-2.9s-8.8,0-8.8,0h-2.9s-5.9,0-5.9,0v-12.9s0-24.5,0-24.5v-1.9s0-21.4,0-21.4h28.2Z"/>
  <path id="US-VA" d="M519.1,147.5l.5.5,1.3.5.5.5-.2.5v.4s.2.4.2.4l1.7.7,1,1,.6.3h.2c0,0,.5.3.5.3l.2.3v1.4c-.1,0-.6.7-.6.7l-.7.5-.9.9-.2.8-.3,1.6.4.5h.4c0,.1,1.2-.2,1.2-.2l.6.2,1.3,1.9,2.5.8.9.5.7,1,1.1.6.8.8v.5s-.3.6-.3.6v.9c-.1,0-.5.5-.5.5h-.9c0,0-.5,0-.5,0l-2.8-3-.3-.3-1-1.6-1.2-.9h-.4s1.8,1.6,1.8,1.6l.7,1.1,1.3,1.5.9.7.7,1,.6.5,1.7.7-.6.5.9.4v.8c.1,0,0,.9,0,.9l-1.3-.3v.6s0,.4,0,.4l-.6.3-.8-.4-2.1-2.3v.3s.2.4.2.4l1.2,1.5,1.1.9.9.4.7.8.2.5.2.7-.5.5-.6.3-.6-.5-.4-.5-.9-.8-.3-.9h-.7s-2.9-1.1-2.9-1.1h-2.3c0-.1.2,0,.2,0l.3.2,1.8.3.7.5,1.5.5h.9c0,.1.4,1.6.4,1.6l1.2,1,.2.8h.8c0,0,1.5-.7,1.5-.7l.9.3,1.4.2.3.6.2,1.1.5,1.3.3,1.2h-3.4s-3.4,0-3.4,0h-3.4s-3.4,0-3.4,0h-3.4s-3.4,0-3.4,0h-3.4s-3.4,0-3.4,0h-3.4s-3.4,0-3.4,0h-3.4s-3.4,0-3.4,0h-3.4s-3.4,0-3.4,0h-3.4s-3.4,0-3.4,0l-.2-.2h-1.3s-1,0-1,0l-.4.2h-3.5s-2.7,0-2.7,0h-3.2s-4.6,0-4.6,0h-2.1l1-.6,1.4-.3,2.5-1,1-1,1.4-.7.6-.8.9-.8.3-.9h.1c0-.1,1.5-1,1.5-1l1.6-1,3.6-2.9v.4c0,0,0,.4,0,.4l.3.5.2.8.3.5.4.4.7.3.9.6.7.2h.2s.8-.6.8-.6l.6-.3.7-.6,1.2.8h.5l1.1-.4h1.1c0,0,.3-.2.3-.2l.4-.3v-.9c0,0,.3,0,.3,0h.2s.5.2.5.2h.5l2-.8h.2c0,0,.2.4.2.4l.9-.5.5-.4.2-.7.4-.7v-.3c0,0-.4-.4-.4-.4l.4-.9.5-.9,2-2.6.7-1.6.8-1,.3-.8.6-.8.4-1.7.3-.3h.4c0,0,.4.2.4.2l.3.3.2.5,1,.4h.9s.6-.3.6-.3l.3-.6.5-1.1.5-.7.3-.8.3-.6.5-.4h1.2s.6-.5.6-.5l.5-.6.3-.2h.3s1-.9,1-.9l1.4-2,.3-1.2.4-.9v-.9c.1,0,.4-.5.4-.5l1.2,1,.7.6,1.6,1.3,1.1.9.4-1,.7-1.5h0ZM542.4,163.2h.2s-1,1.8-1,1.8l-.4.2,1.2-2ZM538.6,164.2l.4-.5,1.4-.2h.9c0-.1-2.1,4.5-2.1,4.5v.9c0,0-.3.3-.3.3l-.6.2-.6.5-.4.6-.4,1.5-.8,1.7-.5-.7v-.6c-.1,0,0-1.6,0-1.6l.8-2.6.9-1.6.7-.8.5-1.5h0Z"/>
  <path id="US-VT" d="M568.6,105.4h-.9s-.9,0-.9,0h-.9s-.9,0-.9,0h-.9s-.9,0-.9,0h-.9s-.9,0-.9,0l-.2-.8v-.7c.1,0,.1-.9.1-.9v-1.2s0-1.3,0-1.3v-1.8s0-1.2,0-1.2v-1.1s0-1.5,0-1.5l-.6-.8h-.2c0-.1-.2,0-.2,0l-.4.5h-.1v-.2c0,0,0-.5,0-.5l.3-1.7v-1.5c0,0-.5-2.1-.5-2.1v-.5l.2-.7.3-.7.5-.8v-.3c0,0,0-1.3,0-1.3v-1.2c.1,0-.5-1.8-.5-1.8l.2-2.4-.2-1.1.2-1v-.9c0,0,1.5,0,1.5,0h3.9s3.9,0,3.9,0h3.9s3.9,0,3.9,0l-.2.3.2,1-1,1.8v.6s.5,1.6.5,1.6v.4s-.2.2-.2.2l-.2.7-.3.4-.4.4-1.3,1-.4.2-1.3.3-.3.4-.3,2.4-.4,1.4v.6c0,0-.6,1.1-.6,1.1l-.5,1.2-.7,1-.4,1.2-.2.5-.2.8-.2,2.5-.3,1.4-.3,2.4-.2.6-.2.3-.3,1v.4s0,.3,0,.3l.5.8.2.5h0Z"/>
  <path id="US-WA" d="M150.4,62.4h-20l-.3.2-1.2.5h-2.4c0,.1-4.8,1.4-4.8,1.4l-2.1,1-1.8.5-3.4.5-3.1.7h-1.3c0,0-.5-.6-.5-.6l-1.5-.3h-2.5c0,0-2.1.3-2.1.3l-1.9,1.2h-.6c0,.1-.5.2-.5.2l-3.4-.5h-.8s-.7-.6-.7-.6l-.2-1-.9-3.1-.9-1.9-.9-.6-.7-.2-.9.3-.3-.2h-.5s-1-.7-1-.7l-.6-.7h-1.8s-.4-.4-.4-.4l-2,.4-.6-.5-1.1.3.3-1.3v-1.6s0-1.6,0-1.6l.3,1.1.7,1.2.3-1.4.2-1.7-.6-.7-1.1-.5-.4-1.6,2.5-1.4-1.4-.3-.5-.6h-.6c0,0,0,.4,0,.4l-.2.6-.2-.8v-1c0,0-.3-1.7-.3-1.7l-1-2.7-.6-3.5-.8-1.8-1.5-1.7-.4-1-.4-2.5.2-1.9-.3-1.3h.7c0,0,1.9,1.1,1.9,1.1l2.4.8.7.6,1.2.4,6.4.7h.4c0,0,.8-.5.8-.5h.3s.9,1,.9,1h.5c0,.1.6,0,.6,0l.5-.2.8-.7v.2c0,0,0,.6,0,.6l.3.9.6,1.1.2.7-1.2,2h-.2s0-.6,0-.6h-.2c0-.1-2.2,3.2-2.2,3.2l-.8,1.6v.7c0,0,0,.4,0,.4h.3c0,.1.7,0,.7,0l1-.7h0c0-.1-1,0-1,0h-.5s0-.7,0-.7v-.4c.1,0,.7-1.1.7-1.1l.7-.7.9-.7.5-.6.4-.9,1-1,.2-.3v-.9s0-.2,0-.2h.5c0,.1.2,1.6.2,1.6v.6c-.1,0-1,.8-1,.8v.3c-.1,0,0,1.1,0,1.1h-.1c0,.1-.3,0-.3,0h-.1c0,0,.8,1.2.8,1.2l.3.9v.8s-.2,1.5-.2,1.5l-.2.3h-.4c0,0-.6-.6-.6-.6v.2c-.1,0-.6,1.2-.6,1.2h-.2c0-.1-.3-1.5-.3-1.5h-.2c0-.1-.9.5-.9.5l-.3.6-.3,1-.4.5h1.1c0,.1,1-.1,1-.1l.8.5h.3l.7-.5.2-.3.6-1.5.3-.3h.4l.4-.2.6-.8v-.3s-.2-1.9-.2-1.9v-1c0,0,0-.3,0-.3l-.3-.4v-.3s.3-.5.3-.5v-.5s-.2-.5-.2-.5v-.5c0,0,.7-1.1.7-1.1v-.5c.1,0,.8-1.1.8-1.1l-.2-.4-.5-.5-.3-.5-.3-.7-.3-.2h0c0,.1.4,1.3.4,1.3h0c0,0-.9-.6-.9-.6l-.2-.4v-.6c-.1,0,0-.4,0-.4l.5-.4h.6c0-.1,0-.5,0-.5l-.8-1.1-.5-.5-.4-.2h-.5c0,0-.2-.3-.2-.3v-.3c0,0,0-.4,0-.4h.3c0-.1.8,0,.8,0l.4-.2v-.5s-.2-.2-.2-.2v-1.6s-.3-1.3-.3-1.3l-.2-.2h-.2s-.2.2-.2.2h-.5s-.3-.4-.3-.4l-.3-.8-.6-2h54.1v2.3s0,2.3,0,2.3v2.3s0,2.3,0,2.3v2.3s0,2.2,0,2.2v2.2s0,2.2,0,2.2v2.2s0,2.2,0,2.2v2.2s0,2.2,0,2.2v2.2s0,2.2,0,2.2v2.2s0,2.2,0,2.2h0c0,.1,0,.5,0,.5l.3.9.6,1.3.2.9-.2.5.2.9.4.7h0ZM95,25.5v.3c.1,0-.2.3-.2.3h-.3s-.4-.4-.4-.4h-.2c0,0,.2.7.2.7v.2s-.9-.5-.9-.5l-.2-.4.2-.4.5-.4h.2s1.1.5,1.1.5h0ZM92.8,27.9l.2.5-1-.3-.4-.3v-.3c-.1,0-.3-.9-.3-.9v-.3c0,0,.5-.1.5-.1l.8,1.1v.5h.1ZM94.6,28.9h-.2c0,.1-.5,0-.5,0l-.3-.3v-.4c0,0,0-.8,0-.8l.2-.2h.2s0,.7,0,.7l.5.7v.3ZM96.9,32.8l.5,1.8.2-.8,1.3,1.3v.6l-.2.2h-.3c0,0-.2-.1-.2-.1l-.2-.5-.3-.2-.6-.2-.3-.5v-.4c-.1,0-.1-1-.1-1l-.2-.3h-.3c0,0-.3-.3-.3-.3l-.5-.7v-.2c0,0,.2-.6.2-.6l.5-1,.4-.5h.2s.3.3.3.3l.3.5v.4c0,0-1.5.8-1.5.8v.2s.6.2.6.2l.2.2.2.6h0ZM97.6,40.6v.3s-.6-.3-.6-.3l-.2-.3v-.7s.2-.4.2-.4h0c0,0,.3.1.3.1h0c0,.1,0,1.3,0,1.3h0ZM98.6,43.4v.3s-.4.2-.4.2h-.2v-.4h-.1c0,0-.4.4-.4.4v-.9s.2-.9.2-.9h.2s.2.6.2.6l.5.7h0ZM94.3,46v.3h-.2l-.3-.6v-.4s.2-.3.2-.3l.3.8h0q0,.1,0,.2Z"/>
  <path id="US-WI" d="M399.5,48.5l-.3.2h-.1c0-.1,0-.5,0-.5l.2-.2h.2c0,0,.1,0,.1,0v.3l-.2.2h0ZM396.9,49.8h-.1c0,.1-.4-.1-.4-.1v-.2s0-.2,0-.2h.2s.2.3.2.3v.2h0ZM399.7,54.4h0c0,.1.2.6.2.6h.5c0-.1.2.2.2.2h.3c0,.1.5.4.5.4l.3.6.3.6.3.6.3.6,1.2.3,1.2.3,1.2.3,1.2.3,1.2.3,1.2.3,1.2.3,1.2.3.7.4.7.4.7.4.7.4h1c0,0,.9.3.9.3h1.3l1.3.3,1.9.6.5.5v.4c0,0-.1.8-.1.8l1.8.8.8.6.3.4v.4s.1.8.1.8l-.2.4v.8l-.4.8v.4c-.1,0-.1.4-.1.4v.2c0,0,.3,0,.3,0h.7s.7-.3.7-.3h.3c0,.1,0,.3,0,.3v.2s-.6,1.4-.6,1.4v.5s.2.5.2.5l.4.5.5.2v.3s-.2.7-.2.7l-.5.5-1.4.7-.2.5v.4s-.9,1.5-.9,1.5l-.4.9-.3,1v.6c0,0,.6.2.6.2h.4c0-.1.3-.6.3-.6l.4-.4.6-.4.4-.5.6-1.3.7-.8h.4s0,0,0,0l.7-.3h.6c0,.1.3.6.3.6l.3.4v.3c0,0,0,.7,0,.7l-.3.8-.5.8-.4,1.2-.4,1.6v1.2c0,0,.1.8.1.8l-.2.7-.6.6-.5.9-.4,1.1-.2.9v.7s0,.5,0,.5l.2.7v.4s-.7,1.6-.7,1.6l-.2.8v.6s-.2.6-.2.6l-.5,1.2-.2.7v.6s0,1,0,1v.3c0,0,0,.3,0,.3v.2c.1,0,.1.3.1.3v.5c-.1,0,0,.4,0,.4l.2.3.2.5v.7c0,0,.2.6.2.6l.3.5v.7s-.1.9-.1.9v1.8c0,0,0,.6,0,.6h-5.4s-4.2,0-4.2,0h-4.2s-4.2,0-4.2,0h-4.2s-4.3,0-4.3,0h0c0,0-.3-1.2-.3-1.2l-1-.8-1.6-.5-1-.9-.5-1.2-.3-1.3v-1.5c-.1,0,0-1.2,0-1.2l.4-1v-.7c0,0-.7-.4-.7-.4l-.4-.5-.2-.6v-.8c0,0-.4-3.8-.4-3.8l-.4-1.8-.6-.7-1.2-.8-1.9-.9-1.2-.9-.7-1.2-1.3-1.5-.9-.6-.9-.2-.7-.5-.5-.7-.7-.5-.9-.2-1-.6-1.2-1.1h0c0,0-.2-.8-.2-.8v-.4c.1,0,.3-1.5.3-1.5v-.5s-.3-1.4-.3-1.4l.3-.5v-1.7c0,0,0-.5,0-.5l.6-1.4v-.7s-.2-.8-.2-.8l-.5-.7-1.3-.7v-.9s.2-.6.2-.6l.8-1.2.5-1.1.4-.5,2.5-1.6h.5c0-.1.4-.6.4-.6l.3-.2v-7.8h.6c0-.1.3-.6.3-.6l.7-.8h.2s.3.4.3.4l.8.5h.6c0,0,.8,0,.8,0l3.2-.9,1.3-.6,1.3-1h.1s.5.2.5.2h.2c0,0,1.7-1.1,1.7-1.1h.6c0-.1.4-.1.4-.1l.5.5v.3c.1,0,0,.5,0,.5l-.5.8-.2.7v.5l-.2.6-.5.8.2.2,1.4-.6.2-.2h0c0-.1,0-.3,0-.3h.2c0,0,1.1.7,1.1.7l.8.4.6.2.5-.2h0ZM398.4,50h-.3c0,0-.7,0-.7,0v-.2l.7-.3h.3c0,0,0,0,0,0v.5h-.1ZM396.9,51.8l-.5.2h-.2s0-.3,0-.3l.3-.3,1.2-.8h.2v.2c0,0-.5.4-.5.4l-.2.2v.2s-.3.2-.3.2h0ZM433.1,71.2h-.3c0,.1-.5,0-.5,0l-.2-.3.3-.8h.1c0,.1.5.1.5.1h.2c0,0,0,.3,0,.3v.6h0,0ZM431.9,72.7l-.2.2h-.3c0-.1-.1.1-.1.1v.6c0,0,0,.3,0,.3h-.3s0,0,0,0l.2.3v.3s-.2.3-.2.3h-.2c0,.1-.2.1-.2.1l-.3.4-.3.8v.4c-.1,0,0,.1,0,.1v.2c0,0-1,1.1-1,1.1h-.3c0,.1-.4,0-.4,0l-.3-.3-.2-.5v-.4s0-.3,0-.3l.8-1,.3-.7.2-.8.3-.5.5-.2.4-.5.3-.7.4-.3h.4c0,0,.2.4.2.4v.5h0Z"/>
  <path id="US-WV" d="M502.6,142.9v1.6s0,1.6,0,1.6v1.5s0,1.5,0,1.5l1.2-.9.6-.3,2-2h.3l.7.3,1.5-1.4.2-.5.2-.2h.2s.1.2.1.2v.3c0,0,0,.1,0,.1l.6.3.8.2h.1s.8,0,.8,0l.3-.3.2-.5.3-.3h.8c0-.1,1.4-.7,1.4-.7h.8c0,0,.7.7.7.7l.7.3h.7s.3.1.3.1l-.2.3.2.3.5.4.2.3-.2.3v.2c0,0,.3.2.3.2l.2.3v.5s.2,0,.2,0l-.6,1.5-.4,1-1.1-.9-1.6-1.3-.7-.6-1.2-1-.3.5v.9c-.1,0-.5.9-.5.9l-.3,1.2-1.4,2-1,.9h-.3s-.3.2-.3.2l-.5.6-.6.5h-1.2s-.5.3-.5.3l-.3.6-.3.8-.5.7-.5,1.1-.3.6-.6.3h-.9s-1-.5-1-.5l-.2-.5-.3-.3-.4-.2h-.4s-.3.4-.3.4l-.4,1.7-.6.8-.3.8-.8,1-.7,1.6-2,2.6-.5.9-.4.9.3.4v.3c0,0-.3.7-.3.7l-.2.7-.5.4-.9.5-.3-.4h-.2c0,0-2,.8-2,.8h-.5l-.5-.3h-.2s-.2.1-.2.1v.2c0,0,0,.7,0,.7l-.4.3h-.3c0,.1-1.1.2-1.1.2l-1.1.4h-.5l-1.2-.8-.7.6-.6.3-.7.6h-.2s-.7-.1-.7-.1l-.9-.6-.7-.3-.4-.4-.3-.5-.2-.8-.3-.5v-.4c.1,0,0-.4,0-.4l-1.3-.4-1.7-1.4-1.1-1.7-.3-.8-.4-.5v-.5c0,0-1.1-1.4-1.1-1.4l-.3-.6v-.4s.3-.7.3-.7v-.3c0,0,0-1.8,0-1.8l-.2-.3,1.1.4,1-.2.7-.5.2-.9.4-.5h.5c0-.1.2-.5.2-.5v-.9c0,0-.2-.6-.2-.6l.4-.9.9-1.4.7-.6.5.3.3.4v.6c0,0,.2,0,.2,0h.1l.4-.5.3-.2h.1s.1,0,.1,0v-.3s-.2-.9-.2-.9v-.5s.3-.2.3-.2l.3-.6.3-1,.4-.5h.5s.5-.4.5-.4l.6-.8.5-.2.4.3h.6s.7-.3.7-.3l1.2-.8,1.7-1.4.8-1.1v-.9s.7-2.1.7-2.1l1.3-3.4.6-2.2v-1s-.2-.8-.2-.8l-.3-.6.2-.5,1.1-.5v2.8s0,5.7,0,5.7v1.4s0,1.4,0,1.4h9.8Z"/>
  <path id="US-WY" d="M271.5,101.9v6.4s0,3.2,0,3.2v3.2s0,6.3,0,6.3v3.1s0,3.1,0,3.1h-66.2v-14.5s0-28.1,0-28.1v-2s0-1.7,0-1.7v-1.6s0-3.3,0-3.3h66v6.6s0,3.3,0,3.3v3.3s0,3.3,0,3.3v3.2s0,3.2,0,3.2v3.2s0,0,0,0Z"/>
</svg>